<svg width="592" height="645" viewBox="0 0 592 645" fill="none" xmlns="http://www.w3.org/2000/svg">
<mask id="mask0_109_143" style="mask-type:luminance" maskUnits="userSpaceOnUse" x="0" y="0" width="592" height="645">
<path d="M0 0H592V644.583H0V0Z" fill="white"/>
</mask>
<g mask="url(#mask0_109_143)">
<path d="M570.073 370.365L567.135 377.552C555.625 405.74 543.771 434.948 532.771 463.906C515.74 508.885 510.448 546.385 516.135 581.948C518.083 592.646 520.698 603.167 523.979 613.531C524.99 616.99 526 620.417 526.969 623.875C527.312 624.594 527.573 625.344 527.76 626.115C527.948 626.896 528.052 627.687 528.073 628.479C528.094 629.281 528.031 630.073 527.885 630.854C527.74 631.646 527.521 632.406 527.208 633.146C526.906 633.885 526.531 634.583 526.073 635.24C525.625 635.906 525.104 636.51 524.531 637.062C523.948 637.615 523.323 638.094 522.646 638.521C521.958 638.937 521.25 639.281 520.49 639.552C519.365 639.99 518.198 640.281 516.99 640.396C515.031 641.521 512.937 642.073 510.677 642.042H253.281C249.312 643.062 245.323 643.156 241.302 642.323C237.292 641.49 233.667 639.812 230.427 637.302C224.76 630.302 220.781 622.437 218.49 613.74C217.823 612.042 217.312 610.604 216.979 609.677C203.281 614.76 189.177 618.073 174.646 619.625C160.115 621.177 145.625 620.906 131.167 618.833C115.281 617.646 100.333 613.312 86.2916 605.802C83.2187 603.677 80.3958 601.25 77.8229 598.542C75.2395 595.844 72.9687 592.896 70.9895 589.729C69.0104 586.562 67.375 583.219 66.0833 579.708C64.7916 576.208 63.8645 572.604 63.3125 568.917C60.3541 553.146 62.6354 537.271 61.2604 521.417C60.3854 513.031 58.3958 504.917 55.2916 497.083C52.177 489.25 48.0625 481.979 42.9375 475.271C42.0625 474.083 41.4166 472.781 41.0104 471.354L39.5312 469.437C38.3645 467.458 37.7916 465.323 37.7916 463.031V453.25C37.7812 452.615 37.8437 451.99 37.9583 451.365C35.6562 447.448 34.552 443.219 34.6458 438.677C34.8333 436.031 34.6458 433.417 34.0729 430.833C33.5 428.24 32.5729 425.792 31.2812 423.479C29.9895 421.167 28.3958 419.083 26.4895 417.229C24.5937 415.385 22.4687 413.844 20.1145 412.625C18.0312 411.531 16.0729 410.26 14.2395 408.781C12.4062 407.312 10.7395 405.677 9.22912 403.865C7.72912 402.062 6.41662 400.135 5.29162 398.062C4.16662 396 3.26037 393.844 2.56245 391.604C1.87495 389.354 1.4062 387.062 1.16662 384.729C0.927035 382.396 0.916617 380.052 1.14579 377.719C1.36453 375.375 1.82287 373.083 2.49995 370.833C3.17703 368.583 4.07287 366.427 5.17704 364.354C9.82287 354.271 15.7083 344.969 22.8125 336.437C29.8854 328.073 35.7291 318.917 40.3229 308.969C44.927 299.021 48.1145 288.646 49.9062 277.844C52.0208 264.302 52.9062 250.323 53.7708 236.802C54.3541 227.5 54.9583 217.927 55.9583 208.531C64.9375 124.26 107.667 64.9895 182.948 32.3645C205.719 22.9478 229.135 15.5728 253.187 10.2291C277.24 4.89574 301.583 1.66657 326.198 0.572821C341.042 0.426987 355.792 1.53116 370.458 3.8749C385.115 6.22907 399.469 9.79157 413.531 14.5624C427.583 19.3437 441.135 25.2603 454.187 32.3332C467.24 39.3957 479.604 47.5103 491.281 56.6666C502.677 65.6353 513.219 75.5103 522.917 86.2812C532.604 97.0624 541.312 108.583 549.031 120.844C556.75 133.115 563.365 145.948 568.875 159.354C574.396 172.75 578.719 186.531 581.875 200.667C585.385 214.677 587.781 228.875 589.052 243.26C590.323 257.646 590.458 272.042 589.458 286.448C588.458 300.865 586.333 315.104 583.083 329.177C579.823 343.24 575.49 356.969 570.073 370.365ZM560.708 213.448C540.458 113.25 463.812 39.9999 365.396 26.8332C348.635 24.7603 331.823 24.0103 314.948 24.5937C298.073 25.1874 281.344 27.0937 264.771 30.3332C248.198 33.5728 231.99 38.1041 216.135 43.9062C200.281 49.7187 184.99 56.7395 170.25 64.9791C164.948 67.7082 159.823 70.7291 154.854 74.0312C149.885 77.3332 145.115 80.9062 140.552 84.7291C135.979 88.5624 131.635 92.6353 127.51 96.9374C123.385 101.25 119.521 105.771 115.896 110.51C112.271 115.239 108.927 120.167 105.844 125.271C102.771 130.375 99.9791 135.635 97.4791 141.042C94.9895 146.458 92.7916 151.99 90.9062 157.646C89.0312 163.302 87.4583 169.042 86.2083 174.875C81.0416 197.5 78.2187 220.417 77.7395 243.614C77.6979 253.698 76.8125 263.698 75.0833 273.625C73.3541 283.562 70.802 293.281 67.4479 302.781C64.0833 312.281 59.9479 321.437 55.052 330.25C50.1562 339.062 44.552 347.396 38.25 355.271C34.3333 359.927 30.8854 364.906 27.9166 370.219C22.0833 381.26 23.7708 387.521 34.3854 394.083C37.9687 396.042 41.2187 398.427 44.1458 401.271C47.0729 404.104 49.5625 407.281 51.625 410.792C53.6875 414.312 55.2291 418.042 56.2708 421.979C57.3125 425.917 57.8125 429.927 57.75 434C57.4895 435.969 57.9687 437.74 59.1875 439.312C60.8437 440.531 62.6875 440.979 64.7083 440.667C76.6875 440.427 89.0937 440.437 101.625 440.667C103.458 440.583 105.25 440.865 106.969 441.5C108.698 442.135 110.229 443.094 111.573 444.354C112.615 445.531 113.385 446.875 113.865 448.375C114.354 449.875 114.521 451.406 114.365 452.979C114.073 460.062 109.5 463.979 101.469 463.979C97.6145 463.979 93.75 463.99 89.8854 464.031C81.9895 464.083 73.8854 464.083 65.8333 463.958C69.5937 469.552 72.8854 475.406 75.6979 481.521C78.5104 487.646 80.8229 493.948 82.625 500.437C84.4166 506.927 85.6874 513.531 86.4166 520.219C87.1562 526.917 87.3437 533.625 87 540.354C86.8854 552.896 86.1458 567.427 93.6562 578.24C101.281 589.229 118.208 591.177 130.437 593.25C182.26 602.021 240.594 585.375 263.708 534.542C270.49 519.687 292.365 532.573 285.635 547.344C280.656 558.229 274.135 568.104 266.094 576.969C258.052 585.833 248.854 593.281 238.5 599.302C241.375 605.406 243.896 611.365 246.021 616.687H499.531C496.198 605.458 493.771 594.042 492.25 582.427C490.729 570.812 490.135 559.146 490.458 547.437C490.792 535.729 492.042 524.125 494.208 512.615C496.385 501.104 499.448 489.833 503.406 478.812C515.917 442.219 530.333 405.604 544.271 370.208L549.646 356.552C554.073 345.219 557.635 333.635 560.344 321.781C563.052 309.927 564.875 297.937 565.812 285.823C566.75 273.698 566.792 261.573 565.938 249.448C565.083 237.323 563.333 225.323 560.708 213.448ZM489.375 228.677C488.708 228.083 488.146 227.396 487.708 226.614C487.271 225.823 486.979 224.989 486.833 224.104C486.687 223.219 486.687 222.333 486.854 221.448C487.01 220.562 487.312 219.729 487.76 218.948C488.417 217.521 488.99 216.062 489.49 214.573C489.979 213.083 490.406 211.573 490.75 210.042C491.094 208.51 491.365 206.969 491.552 205.406C491.74 203.854 491.844 202.292 491.865 200.719C491.896 199.146 491.844 197.583 491.708 196.021C491.573 194.458 491.365 192.906 491.073 191.364C490.781 189.823 490.406 188.292 489.958 186.792C489.51 185.292 488.99 183.812 488.385 182.354C487.792 180.906 487.115 179.489 486.375 178.104C485.625 176.729 484.812 175.385 483.937 174.083C483.052 172.792 482.104 171.542 481.094 170.333C480.083 169.135 479.021 167.979 477.896 166.896C476.771 165.802 475.583 164.76 474.354 163.792C473.125 162.823 471.844 161.906 470.521 161.073C469.187 160.229 467.823 159.458 466.417 158.75C465.021 158.052 463.583 157.417 462.115 156.865C461.156 156.615 460.281 156.219 459.469 155.667C458.656 155.115 457.969 154.437 457.396 153.646C456.823 152.844 456.406 151.979 456.135 151.031C455.875 150.094 455.771 149.125 455.844 148.146C455.708 145.01 455.281 141.917 454.573 138.865C453.854 135.802 452.865 132.844 451.594 129.969C450.323 127.094 448.802 124.364 447.021 121.781C445.24 119.198 443.24 116.792 441.01 114.583C438.792 112.364 436.375 110.375 433.771 108.614C431.177 106.844 428.437 105.344 425.552 104.083C422.677 102.833 419.698 101.864 416.635 101.167C413.573 100.469 410.479 100.052 407.333 99.9374C404.312 99.8853 401.719 98.8124 399.552 96.7082C387.365 77.177 374.146 68.0416 358.062 68.7187C353.677 68.1041 349.333 68.3332 345.031 69.3957C343.583 69.9062 341.979 70.5832 341.979 70.5832C340.635 71.1666 339.281 71.9374 337.167 73.1249C335.646 73.9791 334.177 74.9062 332.76 75.9166C331.99 76.427 331.229 76.9374 330.479 77.5207L330.302 77.6041L329.875 78.0312C327.229 80.2395 324.781 82.6353 322.51 85.2187C322.427 85.302 321.583 86.3124 321.406 86.4895C321.26 86.7395 321.094 86.9582 320.896 87.1666C317.062 93.2603 314.552 99.8541 313.375 106.958V112.031C312.771 112.531 312.125 112.948 311.427 113.292C300.469 117.969 289.292 122.052 277.906 125.562C274.844 126.469 271.937 126.135 269.177 124.552C262.583 119.719 256.146 114.229 250.052 108.906L246.062 105.521C245.448 104.823 244.771 104.208 244.021 103.677C243.271 103.135 242.469 102.687 241.615 102.323C240.771 101.958 239.885 101.698 238.979 101.531C238.073 101.364 237.156 101.302 236.229 101.333C235.312 101.375 234.406 101.51 233.51 101.75C232.615 101.979 231.76 102.312 230.948 102.739C230.125 103.167 229.365 103.687 228.656 104.281C227.958 104.875 227.323 105.542 226.771 106.281C216.937 116.26 206.781 126.406 197.042 136.135L195.948 137.146C195.25 137.687 194.625 138.302 194.073 138.99C193.51 139.667 193.031 140.396 192.635 141.187C192.229 141.969 191.917 142.792 191.698 143.635C191.479 144.49 191.344 145.354 191.312 146.24C191.271 147.115 191.333 147.99 191.49 148.854C191.635 149.719 191.885 150.562 192.219 151.375C192.552 152.187 192.969 152.958 193.469 153.687C193.969 154.406 194.542 155.073 195.187 155.667L200.771 162.271C205.771 168.031 210.927 174.021 215.417 180.292C216.24 181.781 216.74 183.364 216.917 185.052C217.094 186.739 216.927 188.396 216.427 190.01C215.021 194.385 213.385 198.677 211.531 202.875C210 206.594 208.385 210.489 207.115 214.385C205.427 219.364 203.396 220.979 198.656 221.146C191.625 221.323 184.604 222 177.75 222.667C174.365 222.937 171.052 223.26 167.677 223.521C166.75 223.469 165.833 223.531 164.927 223.687C164.01 223.844 163.125 224.094 162.271 224.448C161.417 224.792 160.604 225.229 159.844 225.76C159.083 226.281 158.396 226.885 157.76 227.562C157.135 228.239 156.583 228.979 156.115 229.771C155.656 230.573 155.271 231.406 154.99 232.281C154.708 233.167 154.521 234.062 154.427 234.979C154.344 235.906 154.354 236.823 154.469 237.739C154.552 250.594 154.552 263.698 154.469 276.302V281.302C154.354 282.219 154.344 283.135 154.437 284.052C154.531 284.979 154.719 285.875 155.021 286.75C155.312 287.625 155.698 288.458 156.167 289.25C156.646 290.042 157.208 290.771 157.844 291.437C158.49 292.104 159.198 292.698 159.969 293.208C160.74 293.719 161.552 294.135 162.417 294.469C163.281 294.802 164.177 295.031 165.083 295.156C166 295.292 166.927 295.323 167.844 295.25C174.781 295.583 181.812 296.271 188.573 296.865L196.802 297.615C197.969 297.531 199.115 297.656 200.24 297.99C201.365 298.323 202.396 298.844 203.333 299.552C204.271 300.26 205.052 301.115 205.677 302.104C206.302 303.104 206.729 304.177 206.958 305.323C208.948 312.594 211.854 319.469 215.687 325.958C216.135 326.531 216.531 327.146 216.854 327.792C217.187 328.437 217.448 329.115 217.635 329.823C217.823 330.521 217.948 331.24 217.99 331.969C218.031 332.687 218 333.417 217.896 334.135C217.792 334.854 217.625 335.562 217.375 336.24C217.125 336.927 216.812 337.583 216.437 338.198C216.052 338.823 215.615 339.396 215.115 339.927C214.615 340.458 214.073 340.937 213.479 341.354C209.146 345.687 205.073 350.25 201.281 355.062C199.167 357.594 197.146 360.135 194.937 362.583C194.292 363.187 193.719 363.854 193.219 364.573C192.708 365.302 192.292 366.073 191.958 366.885C191.615 367.698 191.365 368.542 191.208 369.406C191.052 370.271 190.99 371.146 191.01 372.031C191.042 372.906 191.167 373.771 191.375 374.635C191.594 375.49 191.885 376.312 192.281 377.094C192.667 377.885 193.135 378.635 193.687 379.323C194.229 380.01 194.844 380.635 195.531 381.198C205.948 391.927 216.698 402.594 227.781 413.427C228.333 414.062 228.937 414.625 229.604 415.135C230.281 415.646 230.99 416.073 231.75 416.427C232.51 416.781 233.302 417.062 234.115 417.25C234.927 417.437 235.76 417.542 236.594 417.562C237.437 417.573 238.271 417.5 239.094 417.344C239.917 417.177 240.719 416.937 241.49 416.615C242.26 416.281 242.99 415.875 243.677 415.396C244.365 414.917 244.99 414.365 245.562 413.75L272.479 391.26C275.521 392.521 278.396 393.802 281.375 394.979C290.094 398.625 304.656 402.094 312.771 405.896C312.99 406.01 313.198 406.146 313.375 406.323V440.427C313.521 440.844 313.719 441.229 313.958 441.604C319.469 451.333 333.177 453.531 341.469 454.125C343.458 454.052 345.344 453.562 347.125 452.667C348.896 451.76 350.406 450.531 351.635 448.958C358.615 450.406 365.615 450.562 372.646 449.406C379.687 448.26 386.281 445.885 392.427 442.281C399.302 438.354 406.5 435.146 414.021 432.635C447.708 421.729 464.302 402.948 466.094 373.677C466.167 372.333 467.187 369.875 471.417 366.156C484.635 354.396 498.927 338.156 492.667 316.25C491.062 310.042 490.698 303.76 491.562 297.406C492.427 291.052 494.469 285.094 497.667 279.542C498.625 277.469 499.417 275.333 500.052 273.146C500.687 270.948 501.167 268.719 501.469 266.458C501.771 264.198 501.917 261.927 501.875 259.646C501.844 257.365 501.646 255.094 501.281 252.844C500.906 250.594 500.375 248.375 499.677 246.198C498.979 244.031 498.125 241.917 497.115 239.875C496.104 237.823 494.948 235.864 493.646 233.989C492.333 232.114 490.906 230.344 489.333 228.687L489.375 228.677ZM313.333 321.052C294.031 307.854 273.458 284.927 274.042 258.625C274.552 233.25 293.427 210.656 313.333 197.469V321.052ZM283.781 369.177C271.25 362.5 268.958 362.24 258.375 371.885C253.385 376.458 248.219 380.771 243.656 384.667C242.042 386.021 240.427 387.375 239 388.635L218.927 371.135L225.281 363.771C230.615 357.51 235.604 351.594 240.937 345.844C242.115 344.604 243.062 343.208 243.76 341.656C244.469 340.104 244.896 338.479 245.052 336.781C245.208 335.083 245.073 333.406 244.656 331.76C244.24 330.104 243.573 328.562 242.635 327.135C237.135 314.792 231.885 301.677 226.729 287.042C226.365 285.448 225.76 283.948 224.906 282.552C224.042 281.156 222.99 279.937 221.719 278.896C220.458 277.854 219.052 277.042 217.521 276.469C215.979 275.896 214.396 275.583 212.76 275.542C201.917 274.958 192.875 274.271 183.802 273.094C181.604 272.76 178.302 270.375 178.219 269.375C177.781 263.573 177.646 257.76 177.802 251.948C177.885 250.083 177.885 248.229 177.885 246.364L188.302 245.354C196.844 244.5 204.969 243.656 213.01 243.146C214.646 243.083 216.219 242.76 217.74 242.177C219.26 241.583 220.646 240.771 221.896 239.719C223.146 238.667 224.187 237.448 225.031 236.052C225.875 234.656 226.469 233.156 226.812 231.562C231.979 216.844 237.062 203.989 242.469 192.312C243.365 190.864 244.01 189.312 244.396 187.656C244.781 186 244.896 184.323 244.74 182.625C244.583 180.927 244.156 179.302 243.458 177.75C242.771 176.198 241.844 174.792 240.698 173.531C235.271 167.448 230.198 161.187 225.198 155.083C223.25 152.812 221.396 150.437 219.531 148.24L238.24 129.552C240.437 131.406 242.646 133.187 244.844 135.042C250.687 139.781 256.615 144.771 262.375 149.844C263.667 151.083 265.135 152.073 266.771 152.792C268.417 153.521 270.125 153.937 271.917 154.052C273.708 154.167 275.469 153.979 277.187 153.469C278.906 152.969 280.49 152.187 281.927 151.115C290.135 146.802 304.104 142.906 313.344 139.365V170.656C279.479 186.656 249.417 223.031 250.687 262.104C252.042 303.219 283.635 335.021 313.344 348.635V380.365C303.26 377.229 293.406 373.5 283.781 369.177ZM468.76 283.667C460.208 292.969 434.729 295.844 426.177 288.49C424.833 287.354 423.812 285.969 423.135 284.344C413.729 258.042 390.969 251.26 372.156 248.396C370.198 247.906 368.219 247.823 366.219 248.146C364.219 248.469 362.365 249.167 360.646 250.25C359.448 251.25 358.5 252.448 357.802 253.844C357.115 255.25 356.729 256.729 356.667 258.292C355.573 268.354 363.354 270.729 369.365 271.656C383.51 273.771 392.312 277.74 397.052 284.344C399.583 288.854 401.135 293.677 401.708 298.812C402.281 303.948 401.833 309 400.354 313.948C400.354 314.031 400.281 314.115 400.281 314.198C400.156 314.437 400.094 314.698 400.104 314.969C399.906 315.729 399.781 316.51 399.74 317.302C399.698 318.094 399.729 318.885 399.844 319.667C399.948 320.448 400.135 321.219 400.396 321.958C400.667 322.708 401 323.427 401.406 324.104C401.812 324.792 402.271 325.427 402.802 326.01C403.333 326.604 403.927 327.135 404.562 327.604C405.198 328.073 405.875 328.479 406.583 328.823C407.302 329.156 408.052 329.427 408.823 329.615C409.573 329.885 410.354 330.073 411.156 330.177C411.948 330.281 412.75 330.302 413.552 330.229C414.354 330.156 415.135 330.01 415.906 329.771C416.677 329.531 417.406 329.208 418.115 328.812C418.812 328.417 419.458 327.948 420.062 327.417C420.656 326.875 421.187 326.281 421.656 325.625C422.135 324.979 422.531 324.281 422.844 323.542C423.167 322.802 423.406 322.042 423.562 321.25C424.052 319.562 424.646 317.937 425.167 316.333L425.677 314.812C427.698 314.99 429.74 315.24 431.687 315.417C436.604 315.99 441.542 316.25 446.5 316.177C451.656 315.875 456.76 315.219 461.823 314.219C463.677 313.896 465.635 313.625 467.583 313.302C468.187 314.552 468.687 315.844 469.062 317.187C469.448 318.521 469.708 319.885 469.844 321.271C469.99 322.656 470.01 324.042 469.906 325.437C469.802 326.823 469.573 328.187 469.229 329.542C468.875 330.885 468.417 332.198 467.844 333.469C467.26 334.729 466.583 335.937 465.792 337.083C465 338.24 464.115 339.302 463.135 340.292C462.156 341.281 461.094 342.187 459.958 342.99C459.719 342.396 459.448 341.792 459.208 341.115C458.365 338.927 457.427 336.729 456.49 334.615C455.833 332.75 454.833 331.083 453.479 329.646C452.125 328.198 450.531 327.094 448.708 326.312C447.177 325.844 445.615 325.698 444.031 325.875C442.437 326.052 440.948 326.542 439.562 327.333C438.781 327.667 438.042 328.083 437.354 328.573C436.677 329.073 436.052 329.635 435.49 330.271C434.927 330.906 434.437 331.594 434.031 332.333C433.625 333.083 433.302 333.854 433.073 334.667C432.833 335.479 432.687 336.312 432.635 337.156C432.594 338 432.635 338.844 432.771 339.677C432.906 340.51 433.135 341.323 433.448 342.115C433.771 342.896 434.167 343.635 434.646 344.333L434.812 344.677C436.885 348.854 438.687 353.146 440.24 357.542C446.51 376.146 440.073 395.344 425.51 401.521C424.406 400.094 423.396 398.573 422.375 397.042C420.448 393.292 417.656 390.396 413.99 388.323C412.75 387.781 411.448 387.5 410.094 387.479C408.917 387.479 407.781 387.729 406.708 388.24C404.781 389.51 403.156 391.104 401.844 393C400.531 394.906 399.615 396.979 399.094 399.229C398.875 399.812 398.625 400.375 398.333 400.927C398.146 401.177 398 401.458 397.917 401.771C395.583 407.156 392.292 411.885 388.042 415.958C383.802 420.021 378.927 423.104 373.437 425.198C367.854 426.781 362.187 427.208 356.427 426.49C350.667 425.771 345.271 423.958 340.25 421.052C337.927 419.656 336.49 417.625 335.937 414.969C335.594 406.51 335.594 398.042 335.677 389.167C335.677 386.448 335.771 383.667 335.771 380.875C337.208 381.125 338.573 381.375 339.917 381.719C343.552 382.385 346.948 383.073 350.417 383.417C370.396 385.448 384.448 379.531 393.583 365.229C394.135 364.583 394.615 363.885 395.01 363.146C395.396 362.396 395.708 361.615 395.937 360.792C396.156 359.979 396.292 359.146 396.323 358.302C396.365 357.458 396.312 356.625 396.167 355.792C396.021 354.958 395.792 354.146 395.469 353.365C395.135 352.583 394.74 351.854 394.25 351.156C393.76 350.469 393.208 349.833 392.583 349.271C391.958 348.698 391.271 348.208 390.542 347.781C389.365 346.833 388.042 346.167 386.583 345.771C385.135 345.375 383.656 345.281 382.156 345.5C380.49 345.937 378.969 346.687 377.615 347.76C376.26 348.844 375.187 350.135 374.375 351.667C373.229 353.427 371.833 354.979 370.187 356.292C368.542 357.615 366.74 358.646 364.771 359.396C362.792 360.135 360.76 360.562 358.646 360.656C356.542 360.76 354.479 360.521 352.448 359.969C348.417 359.25 344.49 358.156 340.677 356.687L336.354 355.167V326.667C339.396 326.073 342.365 325.562 345.25 325.052C352.604 323.698 359.635 322.437 366.583 320.646C368.312 320.302 369.906 319.625 371.354 318.615C372.792 317.594 373.969 316.323 374.875 314.812C375.521 313.448 375.854 312.021 375.885 310.521C375.917 309.01 375.635 307.573 375.052 306.187C374.833 305.323 374.531 304.5 374.135 303.708C373.729 302.917 373.25 302.187 372.687 301.5C372.115 300.823 371.479 300.208 370.781 299.677C370.073 299.135 369.323 298.687 368.51 298.323C367.708 297.948 366.875 297.677 366 297.5C365.135 297.323 364.26 297.25 363.375 297.271C362.49 297.292 361.615 297.417 360.75 297.635C359.896 297.854 359.073 298.167 358.281 298.573C353.635 299.917 348.885 300.729 344.052 301.021L342.531 301.115C340.615 301.542 338.865 301.167 337.281 300C335.771 298.073 335.208 295.906 335.583 293.49C335.927 272.427 335.927 251.875 335.583 232.427C335.271 229.802 336.01 227.51 337.792 225.562C339.24 224.396 340.885 224.01 342.708 224.385C351.781 225.635 360.604 227.833 369.198 230.989C375.719 233.344 382.323 234.448 386.552 227.094C387.385 225.792 387.927 224.375 388.177 222.844C388.427 221.312 388.365 219.802 387.99 218.302C387.292 216.417 386.25 214.75 384.865 213.302C383.49 211.844 381.875 210.719 380.031 209.927C373.51 205.989 366.51 203.271 359.042 201.771C351.573 200.281 344.062 200.094 336.531 201.208V178.792C338.385 178.958 340.24 179.125 342.021 179.292C346.49 179.906 350.979 180.198 355.49 180.146C357.885 180.281 360.24 180.062 362.552 179.458C364.875 178.864 367.042 177.917 369.062 176.635C371.083 175.354 372.854 173.792 374.385 171.948C375.917 170.104 377.115 168.073 378 165.844C378.667 163.583 378.76 161.302 378.281 159C377.802 156.698 376.812 154.635 375.302 152.823C372.49 150.906 369.385 150.062 365.99 150.292C364.479 150.177 363.146 150.625 362.01 151.635C354.979 159.333 348.292 157.135 340.417 154.521C338.896 154.083 337.365 153.583 335.844 153.083C335.844 149.104 335.76 145.042 335.76 141.062C335.677 131.094 335.583 121.698 335.927 112.052C336 110.854 336.167 109.677 336.448 108.51C336.719 107.344 337.094 106.208 337.562 105.104C338.042 104 338.604 102.937 339.25 101.937C339.906 100.927 340.635 99.9791 341.458 99.1041C342.271 98.2187 343.156 97.4166 344.115 96.6874C345.062 95.9582 346.073 95.3228 347.146 94.7707C348.208 94.2187 349.312 93.7499 350.458 93.3957C351.604 93.0312 352.771 92.7603 353.958 92.6041C356.24 92.1562 358.531 92.0937 360.833 92.4166C363.125 92.7291 365.312 93.427 367.375 94.4791C369.448 95.5416 371.281 96.9166 372.885 98.5937C374.49 100.271 375.781 102.167 376.74 104.271C378.312 109.333 378.823 114.489 378.26 119.75C377.917 125.51 378.604 131.687 385.875 134.062C387.302 134.583 388.771 134.812 390.281 134.771C391.802 134.729 393.25 134.396 394.635 133.792C396.031 133.177 397.25 132.333 398.312 131.26C399.375 130.177 400.198 128.937 400.771 127.531C401.604 126.396 402.646 125.51 403.896 124.854C405.146 124.198 406.479 123.854 407.885 123.823C409.51 123.937 411.115 124.187 412.698 124.594C414.281 125 415.812 125.552 417.292 126.239C418.771 126.927 420.177 127.739 421.5 128.687C422.833 129.635 424.062 130.698 425.198 131.865C426.323 133.042 427.344 134.312 428.24 135.667C429.135 137.031 429.906 138.469 430.542 139.969C431.177 141.469 431.667 143.021 432.01 144.615C432.354 146.208 432.562 147.812 432.604 149.448C432.708 151.24 432.625 153.031 432.375 154.823C432.115 156.604 431.677 158.344 431.073 160.042C430.469 161.74 429.698 163.354 428.771 164.896C427.844 166.448 426.76 167.875 425.542 169.208C424.323 170.531 422.99 171.729 421.531 172.792C420.073 173.854 418.521 174.76 416.885 175.51C415.25 176.26 413.552 176.844 411.792 177.26C410.042 177.667 408.26 177.906 406.458 177.958C397.479 179.135 393.417 183.198 393.927 190.396C393.958 191.958 394.292 193.458 394.937 194.885C395.583 196.312 396.49 197.542 397.656 198.594C399.281 199.771 401.062 200.594 403.01 201.062C404.969 201.531 406.927 201.614 408.917 201.302C412.396 201.146 415.823 200.604 419.198 199.687C422.562 198.771 425.792 197.489 428.875 195.844C431.958 194.208 434.823 192.25 437.469 189.979C440.115 187.698 442.469 185.156 444.552 182.354C448.865 176.437 452.177 177.021 457.5 180.489C458.646 181.208 459.729 182.01 460.74 182.917C461.75 183.823 462.677 184.812 463.51 185.875C464.344 186.948 465.083 188.073 465.719 189.271C466.354 190.469 466.885 191.708 467.302 193C467.719 194.292 468.031 195.604 468.219 196.948C468.406 198.292 468.469 199.635 468.427 200.989C468.375 202.344 468.208 203.687 467.927 205.01C467.646 206.333 467.24 207.625 466.729 208.885C465.812 211.489 464.552 213.927 462.958 216.187C461.354 218.437 459.479 220.437 457.333 222.177C455.177 223.917 452.833 225.333 450.292 226.427C447.75 227.521 445.104 228.239 442.365 228.604C440.167 228.635 438.073 229.104 436.073 230C434.073 230.896 432.323 232.146 430.833 233.76C429.979 235 429.396 236.364 429.104 237.854C428.812 239.333 428.823 240.823 429.146 242.292C429.281 243.948 429.76 245.5 430.594 246.937C431.427 248.375 432.521 249.562 433.896 250.51C435.75 251.552 437.74 252.187 439.865 252.385C441.979 252.594 444.052 252.364 446.073 251.698C451.927 250.052 457.656 248.083 463.271 245.771C465.552 244.833 467.917 243.906 470.302 243.062C472.542 244.771 474.333 246.864 475.677 249.344C477.01 251.812 477.792 254.458 477.99 257.271C478.302 262.115 477.646 266.823 476.052 271.406C474.448 275.979 472.01 280.073 468.76 283.667Z" fill="#3A8EF6" fill-opacity="0.8"/>
</g>
</svg>
