<svg width="309" height="120" viewBox="0 0 309 120" fill="none" xmlns="http://www.w3.org/2000/svg">
<path d="M123.854 78V53.4512H114.173V47.7463H140.537V53.4512H130.856V78H123.854ZM153.133 78.3458C151.203 78.3458 149.474 77.9712 147.947 77.222C146.448 76.4729 145.281 75.3348 144.446 73.8077C143.61 72.2518 143.192 70.2781 143.192 67.8866V54.7478H149.935V66.8926C149.935 68.823 150.338 70.2493 151.145 71.1713C151.98 72.0645 153.147 72.5111 154.646 72.5111C155.683 72.5111 156.605 72.295 157.412 71.8628C158.219 71.4018 158.852 70.7103 159.313 69.7883C159.774 68.8374 160.005 67.6561 160.005 66.2443V54.7478H166.747V78H160.351V71.6035L161.518 73.4619C160.74 75.0755 159.587 76.3 158.06 77.1356C156.562 77.9424 154.919 78.3458 153.133 78.3458ZM202.772 54.4021C204.616 54.4021 206.244 54.7767 207.656 55.5258C209.096 56.2461 210.22 57.3698 211.027 58.8969C211.862 60.3952 212.28 62.3257 212.28 64.6884V78H205.538V65.7256C205.538 63.8528 205.149 62.4697 204.371 61.5765C203.593 60.6833 202.498 60.2367 201.086 60.2367C200.107 60.2367 199.228 60.4672 198.45 60.9282C197.672 61.3604 197.067 62.0231 196.635 62.9163C196.202 63.8096 195.986 64.9477 195.986 66.3307V78H189.244V65.7256C189.244 63.8528 188.855 62.4697 188.077 61.5765C187.328 60.6833 186.247 60.2367 184.836 60.2367C183.856 60.2367 182.977 60.4672 182.199 60.9282C181.421 61.3604 180.816 62.0231 180.384 62.9163C179.952 63.8096 179.736 64.9477 179.736 66.3307V78H172.993V54.7478H179.433V61.1011L178.223 59.2427C179.03 57.658 180.168 56.4622 181.637 55.6554C183.136 54.8199 184.836 54.4021 186.737 54.4021C188.869 54.4021 190.728 54.9495 192.313 56.0444C193.926 57.1105 194.992 58.7529 195.511 60.9715L193.134 60.3232C193.912 58.5079 195.151 57.0673 196.851 56.0012C198.579 54.9351 200.553 54.4021 202.772 54.4021ZM229.556 78.3458C227.079 78.3458 224.874 77.8271 222.944 76.7899C221.042 75.7526 219.53 74.3407 218.406 72.5543C217.311 70.7391 216.763 68.679 216.763 66.3739C216.763 64.0401 217.311 61.9799 218.406 60.1935C219.53 58.3783 221.042 56.9664 222.944 55.958C224.874 54.9207 227.079 54.4021 229.556 54.4021C232.006 54.4021 234.195 54.9207 236.126 55.958C238.056 56.9664 239.569 58.3639 240.664 60.1503C241.759 61.9367 242.306 64.0112 242.306 66.3739C242.306 68.679 241.759 70.7391 240.664 72.5543C239.569 74.3407 238.056 75.7526 236.126 76.7899C234.195 77.8271 232.006 78.3458 229.556 78.3458ZM229.556 72.8136C230.68 72.8136 231.689 72.5543 232.582 72.0357C233.475 71.5171 234.181 70.7823 234.7 69.8315C235.218 68.8518 235.478 67.6993 235.478 66.3739C235.478 65.0197 235.218 63.8672 234.7 62.9163C234.181 61.9655 233.475 61.2308 232.582 60.7121C231.689 60.1935 230.68 59.9342 229.556 59.9342C228.433 59.9342 227.424 60.1935 226.531 60.7121C225.638 61.2308 224.918 61.9655 224.37 62.9163C223.851 63.8672 223.592 65.0197 223.592 66.3739C223.592 67.6993 223.851 68.8518 224.37 69.8315C224.918 70.7823 225.638 71.5171 226.531 72.0357C227.424 72.5543 228.433 72.8136 229.556 72.8136ZM246.813 78V54.7478H253.253V61.3172L252.345 59.4156C253.037 57.7732 254.146 56.5342 255.673 55.6987C257.2 54.8343 259.058 54.4021 261.248 54.4021V60.6257C260.96 60.5969 260.701 60.5825 260.47 60.5825C260.24 60.5537 259.995 60.5393 259.736 60.5393C257.892 60.5393 256.393 61.0723 255.241 62.1384C254.117 63.1757 253.555 64.8036 253.555 67.0222V78H246.813ZM266.896 78.2161C266.262 78.2161 265.714 77.9856 265.253 77.5246C264.821 77.0636 264.605 76.5017 264.605 75.839C264.605 75.1475 264.821 74.5856 265.253 74.1535C265.714 73.7213 266.262 73.5052 266.896 73.5052C267.529 73.5052 268.062 73.7213 268.495 74.1535C268.956 74.5856 269.186 75.1475 269.186 75.839C269.186 76.5017 268.956 77.0636 268.495 77.5246C268.062 77.9856 267.529 78.2161 266.896 78.2161ZM290.393 78V72.9865L290.264 72.1653V63.7807C290.264 61.8503 289.716 60.3664 288.621 59.3291C287.555 58.2918 285.956 57.7732 283.824 57.7732C282.354 57.7732 280.957 58.0181 279.631 58.5079C278.306 58.9978 277.182 59.6461 276.26 60.4528L274.877 58.1622C276.03 57.1825 277.413 56.4334 279.026 55.9148C280.64 55.3673 282.34 55.0936 284.126 55.0936C287.065 55.0936 289.327 55.8283 290.912 57.2978C292.525 58.7384 293.332 60.9427 293.332 63.9104V78H290.393ZM282.57 78.2161C280.87 78.2161 279.387 77.9424 278.119 77.3949C276.88 76.8187 275.929 76.0407 275.266 75.0611C274.604 74.0526 274.272 72.9001 274.272 71.6035C274.272 70.4222 274.546 69.3561 275.093 68.4052C275.67 67.4256 276.592 66.6476 277.859 66.0714C279.156 65.4663 280.885 65.1638 283.046 65.1638H290.869V67.4544H283.132C280.942 67.4544 279.415 67.8434 278.551 68.6213C277.715 69.3993 277.298 70.3645 277.298 71.5171C277.298 72.8136 277.802 73.8509 278.81 74.6289C279.819 75.4068 281.231 75.7958 283.046 75.7958C284.775 75.7958 286.258 75.4068 287.497 74.6289C288.765 73.8221 289.687 72.6696 290.264 71.1713L290.955 73.2891C290.379 74.7873 289.37 75.9831 287.93 76.8763C286.518 77.7695 284.731 78.2161 282.57 78.2161ZM301.667 78V55.3097H304.735V78H301.667ZM303.223 50.2962C302.589 50.2962 302.056 50.0801 301.624 49.6479C301.191 49.2157 300.975 48.6971 300.975 48.092C300.975 47.4869 301.191 46.9827 301.624 46.5793C302.056 46.1471 302.589 45.931 303.223 45.931C303.857 45.931 304.39 46.1327 304.822 46.5361C305.254 46.9395 305.47 47.4437 305.47 48.0488C305.47 48.6827 305.254 49.2157 304.822 49.6479C304.418 50.0801 303.885 50.2962 303.223 50.2962Z" fill="url(#paint0_linear_109_155)"/>
<mask id="mask0_109_155" style="mask-type:luminance" maskUnits="userSpaceOnUse" x="24" y="18" width="72" height="78">
<path d="M24.32 18.5601H95.36V95.9101H24.32V18.5601Z" fill="white"/>
</mask>
<g mask="url(#mask0_109_155)">
<path d="M92.7288 63.0037L92.3763 63.8662C90.995 67.2487 89.5725 70.7537 88.2525 74.2287C86.2088 79.6262 85.5738 84.1262 86.2563 88.3937C86.49 89.6775 86.8038 90.94 87.1975 92.1837C87.3188 92.5987 87.44 93.01 87.5563 93.425C87.5975 93.5112 87.6288 93.6012 87.6513 93.6937C87.6738 93.7875 87.6863 93.8825 87.6888 93.9775C87.6913 94.0737 87.6838 94.1687 87.6663 94.2625C87.6488 94.3575 87.6225 94.4487 87.585 94.5375C87.5488 94.6262 87.5038 94.71 87.4488 94.7887C87.395 94.8687 87.3325 94.9412 87.2638 95.0075C87.1938 95.0737 87.1188 95.1312 87.0375 95.1825C86.955 95.2325 86.87 95.2737 86.7788 95.3062C86.6438 95.3587 86.5038 95.3937 86.3588 95.4075C86.1238 95.5425 85.8725 95.6087 85.6013 95.605H54.7138C54.2375 95.7275 53.7588 95.7387 53.2763 95.6387C52.795 95.5387 52.36 95.3375 51.9713 95.0362C51.2913 94.1962 50.8138 93.2525 50.5388 92.2087C50.4588 92.005 50.3975 91.8325 50.3575 91.7212C48.7138 92.3312 47.0213 92.7287 45.2775 92.915C43.5338 93.1012 41.795 93.0687 40.06 92.82C38.1538 92.6775 36.36 92.1575 34.675 91.2562C34.3063 91.0012 33.9675 90.71 33.6588 90.385C33.3488 90.0612 33.0763 89.7075 32.8388 89.3275C32.6013 88.9475 32.405 88.5462 32.25 88.125C32.095 87.705 31.9838 87.2725 31.9175 86.83C31.5625 84.9375 31.8363 83.0325 31.6713 81.13C31.5663 80.1237 31.3275 79.15 30.955 78.21C30.5813 77.27 30.0875 76.3975 29.4725 75.5925C29.3675 75.45 29.29 75.2937 29.2413 75.1225L29.0638 74.8925C28.9238 74.655 28.855 74.3987 28.855 74.1237V72.95C28.8538 72.8737 28.8613 72.7987 28.875 72.7237C28.5988 72.2537 28.4663 71.7462 28.4775 71.2012C28.5 70.8837 28.4775 70.57 28.4088 70.26C28.34 69.9487 28.2288 69.655 28.0738 69.3775C27.9188 69.1 27.7275 68.85 27.4988 68.6275C27.2713 68.4062 27.0163 68.2212 26.7338 68.075C26.4838 67.9437 26.2488 67.7912 26.0288 67.6137C25.8088 67.4375 25.6088 67.2412 25.4275 67.0237C25.2475 66.8075 25.09 66.5762 24.955 66.3275C24.82 66.08 24.7113 65.8212 24.6275 65.5525C24.545 65.2825 24.4888 65.0075 24.46 64.7275C24.4313 64.4475 24.43 64.1662 24.4575 63.8862C24.4838 63.605 24.5388 63.33 24.62 63.06C24.7013 62.79 24.8088 62.5312 24.9413 62.2825C25.4988 61.0725 26.205 59.9562 27.0575 58.9325C27.9063 57.9287 28.6075 56.83 29.1588 55.6362C29.7113 54.4425 30.0938 53.1975 30.3088 51.9012C30.5625 50.2762 30.6688 48.5987 30.7725 46.9762C30.8425 45.86 30.915 44.7112 31.035 43.5837C32.1125 33.4712 37.24 26.3587 46.2738 22.4437C49.0063 21.3137 51.8163 20.4287 54.7025 19.7875C57.5888 19.1475 60.51 18.76 63.4638 18.6287C65.245 18.6112 67.015 18.7437 68.775 19.025C70.5338 19.3075 72.2563 19.735 73.9438 20.3075C75.63 20.8812 77.2563 21.5912 78.8225 22.44C80.3888 23.2875 81.8725 24.2612 83.2738 25.36C84.6413 26.4362 85.9063 27.6212 87.07 28.9137C88.2325 30.2075 89.2775 31.59 90.2038 33.0612C91.13 34.5337 91.9238 36.0737 92.585 37.6825C93.2475 39.29 93.7663 40.9437 94.145 42.64C94.5663 44.3212 94.8538 46.025 95.0063 47.7512C95.1588 49.4775 95.175 51.205 95.055 52.9337C94.935 54.6637 94.68 56.3725 94.29 58.0612C93.8988 59.7487 93.3788 61.3962 92.7288 63.0037ZM91.605 44.1737C89.175 32.15 79.9775 23.36 68.1675 21.78C66.1563 21.5312 64.1388 21.4412 62.1138 21.5112C60.0888 21.5825 58.0813 21.8112 56.0925 22.2C54.1038 22.5887 52.1588 23.1325 50.2563 23.8287C48.3538 24.5262 46.5188 25.3687 44.75 26.3575C44.1138 26.685 43.4988 27.0475 42.9025 27.4437C42.3063 27.84 41.7338 28.2687 41.1863 28.7275C40.6375 29.1875 40.1163 29.6762 39.6213 30.1925C39.1263 30.71 38.6625 31.2525 38.2275 31.8212C37.7925 32.3887 37.3913 32.98 37.0213 33.5925C36.6525 34.205 36.3175 34.8362 36.0175 35.485C35.7188 36.135 35.455 36.7987 35.2288 37.4775C35.0038 38.1562 34.815 38.845 34.665 39.545C34.045 42.26 33.7063 45.01 33.6488 47.7937C33.6438 49.0037 33.5375 50.2037 33.33 51.395C33.1225 52.5875 32.8163 53.7537 32.4138 54.8937C32.01 56.0337 31.5138 57.1325 30.9263 58.19C30.3388 59.2475 29.6663 60.2475 28.91 61.1925C28.44 61.7512 28.0263 62.3487 27.67 62.9862C26.97 64.3112 27.1725 65.0625 28.4463 65.85C28.8763 66.085 29.2663 66.3712 29.6175 66.7125C29.9688 67.0525 30.2675 67.4337 30.515 67.855C30.7625 68.2775 30.9475 68.725 31.0725 69.1975C31.1975 69.67 31.2575 70.1512 31.25 70.64C31.2188 70.8762 31.2763 71.0887 31.4225 71.2775C31.6213 71.4237 31.8425 71.4775 32.085 71.44C33.5225 71.4112 35.0113 71.4125 36.515 71.44C36.735 71.43 36.95 71.4637 37.1563 71.54C37.3638 71.6162 37.5475 71.7312 37.7088 71.8825C37.8338 72.0237 37.9263 72.185 37.9838 72.365C38.0425 72.545 38.0625 72.7287 38.0438 72.9175C38.0088 73.7675 37.46 74.2375 36.4963 74.2375C36.0338 74.2375 35.57 74.2387 35.1063 74.2437C34.1588 74.25 33.1863 74.25 32.22 74.235C32.6713 74.9062 33.0663 75.6087 33.4038 76.3425C33.7413 77.0775 34.0188 77.8337 34.235 78.6125C34.45 79.3912 34.6025 80.1837 34.69 80.9862C34.7788 81.79 34.8013 82.595 34.76 83.4025C34.7463 84.9075 34.6575 86.6512 35.5588 87.9487C36.4738 89.2675 38.505 89.5012 39.9725 89.75C46.1913 90.8025 53.1913 88.805 55.965 82.705C56.7788 80.9225 59.4038 82.4687 58.5963 84.2412C57.9988 85.5475 57.2163 86.7325 56.2513 87.7962C55.2863 88.86 54.1825 89.7537 52.94 90.4762C53.285 91.2087 53.5875 91.9237 53.8425 92.5625H84.2638C83.8638 91.215 83.5725 89.845 83.39 88.4512C83.2075 87.0575 83.1363 85.6575 83.175 84.2525C83.215 82.8475 83.365 81.455 83.625 80.0737C83.8863 78.6925 84.2538 77.34 84.7288 76.0175C86.23 71.6262 87.96 67.2325 89.6325 62.985L90.2775 61.3462C90.8088 59.9862 91.2363 58.5962 91.5613 57.1737C91.8863 55.7512 92.105 54.3125 92.2175 52.8587C92.33 51.4037 92.335 49.9487 92.2325 48.4937C92.13 47.0387 91.92 45.5987 91.605 44.1737ZM83.045 46.0012C82.965 45.93 82.8975 45.8475 82.845 45.7537C82.7925 45.6587 82.7575 45.5587 82.74 45.4525C82.7225 45.3462 82.7225 45.24 82.7425 45.1337C82.7613 45.0275 82.7975 44.9275 82.8513 44.8337C82.93 44.6625 82.9988 44.4875 83.0588 44.3087C83.1175 44.13 83.1688 43.9487 83.21 43.765C83.2513 43.5812 83.2838 43.3962 83.3063 43.2087C83.3288 43.0225 83.3413 42.835 83.3438 42.6462C83.3475 42.4575 83.3413 42.27 83.325 42.0825C83.3088 41.895 83.2838 41.7087 83.2488 41.5237C83.2138 41.3387 83.1688 41.155 83.115 40.975C83.0613 40.795 82.9988 40.6175 82.9263 40.4425C82.855 40.2687 82.7738 40.0987 82.685 39.9325C82.595 39.7675 82.4975 39.6062 82.3925 39.45C82.2863 39.295 82.1725 39.145 82.0513 39C81.93 38.8562 81.8025 38.7175 81.6675 38.5875C81.5325 38.4562 81.39 38.3312 81.2425 38.215C81.095 38.0987 80.9413 37.9887 80.7825 37.8887C80.6225 37.7875 80.4588 37.695 80.29 37.61C80.1225 37.5262 79.95 37.45 79.7738 37.3837C79.6588 37.3537 79.5538 37.3062 79.4563 37.24C79.3588 37.1737 79.2763 37.0925 79.2075 36.9975C79.1388 36.9012 79.0888 36.7975 79.0563 36.6837C79.025 36.5712 79.0125 36.455 79.0213 36.3375C79.005 35.9612 78.9538 35.59 78.8688 35.2237C78.7825 34.8562 78.6638 34.5012 78.5113 34.1562C78.3588 33.8112 78.1763 33.4837 77.9625 33.1737C77.7488 32.8637 77.5088 32.575 77.2413 32.31C76.975 32.0437 76.685 31.805 76.3725 31.5937C76.0613 31.3812 75.7325 31.2012 75.3863 31.05C75.0413 30.9 74.6838 30.7837 74.3163 30.7C73.9488 30.6162 73.5775 30.5662 73.2 30.5525C72.8375 30.5462 72.5263 30.4175 72.2663 30.165C70.8038 27.8212 69.2175 26.725 67.2875 26.8062C66.7613 26.7325 66.24 26.76 65.7238 26.8875C65.55 26.9487 65.3575 27.03 65.3575 27.03C65.1963 27.1 65.0338 27.1925 64.78 27.335C64.5975 27.4375 64.4213 27.5487 64.2513 27.67C64.1588 27.7312 64.0675 27.7925 63.9775 27.8625L63.9563 27.8725L63.905 27.9237C63.5875 28.1887 63.2938 28.4762 63.0213 28.7862C63.0113 28.7962 62.91 28.9175 62.8888 28.9387C62.8713 28.9687 62.8513 28.995 62.8275 29.02C62.3675 29.7512 62.0663 30.5425 61.925 31.395V32.0037C61.8525 32.0637 61.775 32.1137 61.6913 32.155C60.3763 32.7162 59.035 33.2062 57.6688 33.6275C57.3013 33.7362 56.9525 33.6962 56.6213 33.5062C55.83 32.9262 55.0575 32.2675 54.3263 31.6287L53.8475 31.2225C53.7738 31.1387 53.6925 31.065 53.6025 31.0012C53.5125 30.9362 53.4163 30.8825 53.3138 30.8387C53.2125 30.795 53.1063 30.7637 52.9975 30.7437C52.8888 30.7237 52.7788 30.7162 52.6675 30.72C52.5575 30.725 52.4488 30.7412 52.3413 30.77C52.2338 30.7975 52.1313 30.8375 52.0338 30.8887C51.935 30.94 51.8438 31.0025 51.7588 31.0737C51.675 31.145 51.5988 31.225 51.5325 31.3137C50.3525 32.5112 49.1338 33.7287 47.965 34.8962L47.8338 35.0175C47.75 35.0825 47.675 35.1562 47.6088 35.2387C47.5413 35.32 47.4838 35.4075 47.4363 35.5025C47.3875 35.5962 47.35 35.695 47.3238 35.7962C47.2975 35.8987 47.2813 36.0025 47.2775 36.1087C47.2725 36.2137 47.28 36.3187 47.2988 36.4225C47.3163 36.5262 47.3463 36.6275 47.3863 36.725C47.4263 36.8225 47.4763 36.915 47.5363 37.0025C47.5963 37.0887 47.665 37.1687 47.7425 37.24L48.4125 38.0325C49.0125 38.7237 49.6313 39.4425 50.17 40.195C50.2688 40.3737 50.3288 40.5637 50.35 40.7662C50.3713 40.9687 50.3513 41.1675 50.2913 41.3612C50.1225 41.8862 49.9263 42.4012 49.7038 42.905C49.52 43.3512 49.3263 43.8187 49.1738 44.2862C48.9713 44.8837 48.7275 45.0775 48.1588 45.0975C47.315 45.1187 46.4725 45.2 45.65 45.28C45.2438 45.3125 44.8463 45.3512 44.4413 45.3825C44.33 45.3762 44.22 45.3837 44.1113 45.4025C44.0013 45.4212 43.895 45.4512 43.7925 45.4937C43.69 45.535 43.5925 45.5875 43.5013 45.6512C43.41 45.7137 43.3275 45.7862 43.2513 45.8675C43.1763 45.9487 43.11 46.0375 43.0538 46.1325C42.9988 46.2287 42.9525 46.3287 42.9188 46.4337C42.885 46.54 42.8625 46.6475 42.8513 46.7575C42.8413 46.8687 42.8425 46.9787 42.8563 47.0887C42.8663 48.6312 42.8663 50.2037 42.8563 51.7162V52.3162C42.8425 52.4262 42.8413 52.5362 42.8525 52.6462C42.8638 52.7575 42.8863 52.865 42.9225 52.97C42.9575 53.075 43.0038 53.175 43.06 53.27C43.1175 53.365 43.185 53.4525 43.2613 53.5325C43.3388 53.6125 43.4238 53.6837 43.5163 53.745C43.6088 53.8062 43.7063 53.8562 43.81 53.8962C43.9138 53.9362 44.0213 53.9637 44.13 53.9787C44.24 53.995 44.3513 53.9987 44.4613 53.99C45.2938 54.03 46.1375 54.1125 46.9488 54.1837L47.9363 54.2737C48.0763 54.2637 48.2138 54.2787 48.3488 54.3187C48.4838 54.3587 48.6075 54.4212 48.72 54.5062C48.8325 54.5912 48.9263 54.6937 49.0013 54.8125C49.0763 54.9325 49.1275 55.0612 49.155 55.1987C49.3938 56.0712 49.7425 56.8962 50.2025 57.675C50.2563 57.7437 50.3038 57.8175 50.3425 57.895C50.3825 57.9725 50.4138 58.0537 50.4363 58.1387C50.4588 58.2225 50.4738 58.3087 50.4788 58.3962C50.4838 58.4825 50.48 58.57 50.4675 58.6562C50.455 58.7425 50.435 58.8275 50.405 58.9087C50.375 58.9912 50.3375 59.07 50.2925 59.1437C50.2463 59.2187 50.1938 59.2875 50.1338 59.3512C50.0738 59.415 50.0088 59.4725 49.9375 59.5225C49.4175 60.0425 48.9288 60.59 48.4738 61.1675C48.22 61.4712 47.9775 61.7762 47.7125 62.07C47.635 62.1425 47.5663 62.2225 47.5063 62.3087C47.445 62.3962 47.395 62.4887 47.355 62.5862C47.3138 62.6837 47.2838 62.785 47.265 62.8887C47.2463 62.9925 47.2388 63.0975 47.2413 63.2037C47.245 63.3087 47.26 63.4125 47.285 63.5162C47.3113 63.6187 47.3463 63.7175 47.3938 63.8112C47.44 63.9062 47.4963 63.9962 47.5625 64.0787C47.6275 64.1612 47.7013 64.2362 47.7838 64.3037C49.0338 65.5912 50.3238 66.8712 51.6538 68.1712C51.72 68.2475 51.7925 68.315 51.8725 68.3762C51.9538 68.4375 52.0388 68.4887 52.13 68.5312C52.2213 68.5737 52.3163 68.6075 52.4138 68.63C52.5113 68.6525 52.6113 68.665 52.7113 68.6675C52.8125 68.6687 52.9125 68.66 53.0113 68.6412C53.11 68.6212 53.2063 68.5925 53.2988 68.5537C53.3913 68.5137 53.4788 68.465 53.5613 68.4075C53.6438 68.35 53.7188 68.2837 53.7875 68.21L57.0175 65.5112C57.3825 65.6625 57.7275 65.8162 58.085 65.9575C59.1313 66.395 60.8788 66.8112 61.8525 67.2675C61.8788 67.2812 61.9038 67.2975 61.925 67.3187V71.4112C61.9425 71.4612 61.9663 71.5075 61.995 71.5525C62.6563 72.72 64.3013 72.9837 65.2963 73.055C65.535 73.0462 65.7613 72.9875 65.975 72.88C66.1875 72.7712 66.3688 72.6237 66.5163 72.435C67.3538 72.6087 68.1938 72.6275 69.0375 72.4887C69.8825 72.3512 70.6738 72.0662 71.4113 71.6337C72.2363 71.1625 73.1 70.7775 74.0025 70.4762C78.045 69.1675 80.0363 66.9137 80.2513 63.4012C80.26 63.24 80.3825 62.945 80.89 62.4987C82.4763 61.0875 84.1913 59.1387 83.44 56.51C83.2475 55.765 83.2038 55.0112 83.3075 54.2487C83.4113 53.4862 83.6563 52.7712 84.04 52.105C84.155 51.8562 84.25 51.6 84.3263 51.3375C84.4025 51.0737 84.46 50.8062 84.4963 50.535C84.5325 50.2637 84.55 49.9912 84.545 49.7175C84.5413 49.4437 84.5175 49.1712 84.4738 48.9012C84.4288 48.6312 84.365 48.365 84.2813 48.1037C84.1975 47.8437 84.095 47.59 83.9738 47.345C83.8525 47.0987 83.7138 46.8637 83.5575 46.6387C83.4 46.4137 83.2288 46.2012 83.04 46.0025L83.045 46.0012ZM61.92 57.0862C59.6038 55.5025 57.135 52.7512 57.205 49.595C57.2663 46.55 59.5313 43.8387 61.92 42.2562V57.0862ZM58.3738 62.8612C56.87 62.06 56.595 62.0287 55.325 63.1862C54.7263 63.735 54.1063 64.2525 53.5588 64.72C53.365 64.8825 53.1713 65.045 53 65.1962L50.5913 63.0962L51.3538 62.2125C51.9938 61.4612 52.5925 60.7512 53.2325 60.0612C53.3738 59.9125 53.4875 59.745 53.5713 59.5587C53.6563 59.3725 53.7075 59.1775 53.7263 58.9737C53.745 58.77 53.7288 58.5687 53.6788 58.3712C53.6288 58.1725 53.5488 57.9875 53.4363 57.8162C52.7763 56.335 52.1463 54.7612 51.5275 53.005C51.4838 52.8137 51.4113 52.6337 51.3088 52.4662C51.205 52.2987 51.0788 52.1525 50.9263 52.0275C50.775 51.9025 50.6063 51.805 50.4225 51.7362C50.2375 51.6675 50.0475 51.63 49.8513 51.625C48.55 51.555 47.465 51.4725 46.3763 51.3312C46.1125 51.2912 45.7163 51.005 45.7063 50.885C45.6538 50.1887 45.6375 49.4912 45.6563 48.7937C45.6663 48.57 45.6663 48.3475 45.6663 48.1237L46.9163 48.0025C47.9413 47.9 48.9163 47.7987 49.8813 47.7375C50.0775 47.73 50.2663 47.6912 50.4488 47.6212C50.6313 47.55 50.7975 47.4525 50.9475 47.3262C51.0975 47.2 51.2225 47.0537 51.3238 46.8862C51.425 46.7187 51.4963 46.5387 51.5375 46.3475C52.1575 44.5812 52.7675 43.0387 53.4163 41.6375C53.5238 41.4637 53.6013 41.2775 53.6475 41.0787C53.6938 40.88 53.7075 40.6787 53.6888 40.475C53.67 40.2712 53.6188 40.0762 53.535 39.89C53.4525 39.7037 53.3413 39.535 53.2038 39.3837C52.5525 38.6537 51.9438 37.9025 51.3438 37.17C51.11 36.8975 50.8875 36.6125 50.6638 36.3487L52.9088 34.1062C53.1725 34.3287 53.4375 34.5425 53.7013 34.765C54.4025 35.3337 55.1138 35.9325 55.805 36.5412C55.96 36.69 56.1363 36.8087 56.3325 36.895C56.53 36.9825 56.735 37.0325 56.95 37.0462C57.165 37.06 57.3763 37.0375 57.5825 36.9762C57.7888 36.9162 57.9788 36.8225 58.1513 36.6937C59.1363 36.1762 60.8125 35.7087 61.9213 35.2837V39.0387C57.8575 40.9587 54.25 45.3237 54.4025 50.0125C54.565 54.9462 58.3563 58.7625 61.9213 60.3962V64.2037C60.7113 63.8275 59.5288 63.38 58.3738 62.8612ZM80.5713 52.6C79.545 53.7162 76.4875 54.0612 75.4613 53.1787C75.3 53.0425 75.1775 52.8762 75.0963 52.6812C73.9675 49.525 71.2363 48.7112 68.9788 48.3675C68.7438 48.3087 68.5063 48.2987 68.2663 48.3375C68.0263 48.3762 67.8038 48.46 67.5975 48.59C67.4538 48.71 67.34 48.8537 67.2563 49.0212C67.1738 49.19 67.1275 49.3675 67.12 49.555C66.9888 50.7625 67.9225 51.0475 68.6438 51.1587C70.3413 51.4125 71.3975 51.8887 71.9663 52.6812C72.27 53.2225 72.4563 53.8012 72.525 54.4175C72.5938 55.0337 72.54 55.64 72.3625 56.2337C72.3625 56.2437 72.3538 56.2537 72.3538 56.2637C72.3388 56.2925 72.3313 56.3237 72.3325 56.3562C72.3088 56.4475 72.2938 56.5412 72.2888 56.6362C72.2838 56.7312 72.2875 56.8262 72.3013 56.92C72.3138 57.0137 72.3363 57.1062 72.3675 57.195C72.4 57.285 72.44 57.3712 72.4888 57.4525C72.5375 57.535 72.5925 57.6112 72.6563 57.6812C72.72 57.7525 72.7913 57.8162 72.8675 57.8725C72.9438 57.9287 73.025 57.9775 73.11 58.0187C73.1963 58.0587 73.2863 58.0912 73.3788 58.1137C73.4688 58.1462 73.5625 58.1687 73.6588 58.1812C73.7538 58.1937 73.85 58.1962 73.9463 58.1875C74.0425 58.1787 74.1363 58.1612 74.2288 58.1325C74.3213 58.1037 74.4088 58.065 74.4938 58.0175C74.5775 57.97 74.655 57.9137 74.7275 57.85C74.7988 57.785 74.8625 57.7137 74.9188 57.635C74.9763 57.5575 75.0238 57.4737 75.0613 57.385C75.1 57.2962 75.1288 57.205 75.1475 57.11C75.2063 56.9075 75.2775 56.7125 75.34 56.52L75.4013 56.3375C75.6438 56.3587 75.8888 56.3887 76.1225 56.41C76.7125 56.4787 77.305 56.51 77.9 56.5012C78.5188 56.465 79.1313 56.3862 79.7388 56.2662C79.9613 56.2275 80.1963 56.195 80.43 56.1562C80.5025 56.3062 80.5625 56.4612 80.6075 56.6225C80.6538 56.7825 80.685 56.9462 80.7013 57.1125C80.7188 57.2787 80.7213 57.445 80.7088 57.6125C80.6963 57.7787 80.6688 57.9425 80.6275 58.105C80.585 58.2662 80.53 58.4237 80.4613 58.5762C80.3913 58.7275 80.31 58.8725 80.215 59.01C80.12 59.1487 80.0138 59.2762 79.8963 59.395C79.7788 59.5137 79.6513 59.6225 79.515 59.7187C79.4863 59.6475 79.4538 59.575 79.425 59.4937C79.3238 59.2312 79.2113 58.9675 79.0988 58.7137C79.02 58.49 78.9 58.29 78.7375 58.1175C78.575 57.9437 78.3838 57.8112 78.165 57.7175C77.9813 57.6612 77.7938 57.6437 77.6038 57.665C77.4125 57.6862 77.2338 57.745 77.0675 57.84C76.9738 57.88 76.885 57.93 76.8025 57.9887C76.7213 58.0487 76.6463 58.1162 76.5788 58.1925C76.5113 58.2687 76.4525 58.3512 76.4038 58.44C76.355 58.53 76.3163 58.6225 76.2888 58.72C76.26 58.8175 76.2425 58.9175 76.2363 59.0187C76.2313 59.12 76.2363 59.2212 76.2525 59.3212C76.2688 59.4212 76.2963 59.5187 76.3338 59.6137C76.3725 59.7075 76.42 59.7962 76.4775 59.88L76.4975 59.9212C76.7463 60.4225 76.9625 60.9375 77.1488 61.465C77.9013 63.6975 77.1288 66.0012 75.3813 66.7425C75.2488 66.5712 75.1275 66.3887 75.005 66.205C74.7738 65.755 74.4388 65.4075 73.9988 65.1587C73.85 65.0937 73.6938 65.06 73.5313 65.0575C73.39 65.0575 73.2538 65.0875 73.125 65.1487C72.8938 65.3012 72.6988 65.4925 72.5413 65.72C72.3838 65.9487 72.2738 66.1975 72.2113 66.4675C72.185 66.5375 72.155 66.605 72.12 66.6712C72.0975 66.7012 72.08 66.735 72.07 66.7725C71.79 67.4187 71.395 67.9862 70.885 68.475C70.3763 68.9625 69.7913 69.3325 69.1325 69.5837C68.4625 69.7737 67.7825 69.825 67.0913 69.7387C66.4 69.6525 65.7525 69.435 65.15 69.0862C64.8713 68.9187 64.6988 68.675 64.6325 68.3562C64.5913 67.3412 64.5913 66.325 64.6013 65.26C64.6013 64.9337 64.6125 64.6 64.6125 64.265C64.785 64.295 64.9488 64.325 65.11 64.3662C65.5463 64.4462 65.9538 64.5287 66.37 64.57C68.7675 64.8137 70.4538 64.1037 71.55 62.3875C71.6163 62.31 71.6738 62.2262 71.7213 62.1375C71.7675 62.0475 71.805 61.9537 71.8325 61.855C71.8588 61.7575 71.875 61.6575 71.8788 61.5562C71.8838 61.455 71.8775 61.355 71.86 61.255C71.8425 61.155 71.815 61.0575 71.7763 60.9637C71.7363 60.87 71.6888 60.7825 71.63 60.6987C71.5713 60.6162 71.505 60.54 71.43 60.4725C71.355 60.4037 71.2725 60.345 71.185 60.2937C71.0438 60.18 70.885 60.1 70.71 60.0525C70.5363 60.005 70.3588 59.9937 70.1788 60.02C69.9788 60.0725 69.7963 60.1625 69.6338 60.2912C69.4713 60.4212 69.3425 60.5762 69.245 60.76C69.1075 60.9712 68.94 61.1575 68.7425 61.315C68.545 61.4737 68.3288 61.5975 68.0925 61.6875C67.855 61.7762 67.6113 61.8275 67.3575 61.8387C67.105 61.8512 66.8575 61.8225 66.6138 61.7562C66.13 61.67 65.6588 61.5387 65.2013 61.3625L64.6825 61.18V57.76C65.0475 57.6887 65.4038 57.6275 65.75 57.5662C66.6325 57.4037 67.4763 57.2525 68.31 57.0375C68.5175 56.9962 68.7088 56.915 68.8825 56.7937C69.055 56.6712 69.1963 56.5187 69.305 56.3375C69.3825 56.1737 69.4225 56.0025 69.4263 55.8225C69.43 55.6412 69.3963 55.4687 69.3263 55.3025C69.3 55.1987 69.2638 55.1 69.2163 55.005C69.1675 54.91 69.11 54.8225 69.0425 54.74C68.9738 54.6587 68.8975 54.585 68.8138 54.5212C68.7288 54.4562 68.6388 54.4025 68.5413 54.3587C68.445 54.3137 68.345 54.2812 68.24 54.26C68.1363 54.2387 68.0313 54.23 67.925 54.2325C67.8188 54.235 67.7138 54.25 67.61 54.2762C67.5075 54.3025 67.4088 54.34 67.3138 54.3887C66.7563 54.55 66.1863 54.6475 65.6063 54.6825L65.4238 54.6937C65.1938 54.745 64.9838 54.7 64.7938 54.56C64.6125 54.3287 64.545 54.0687 64.59 53.7787C64.6313 51.2512 64.6313 48.785 64.59 46.4512C64.5525 46.1362 64.6413 45.8612 64.855 45.6275C65.0288 45.4875 65.2263 45.4412 65.445 45.4862C66.5338 45.6362 67.5925 45.9 68.6238 46.2787C69.4063 46.5612 70.1988 46.6937 70.7063 45.8112C70.8063 45.655 70.8713 45.485 70.9013 45.3012C70.9313 45.1175 70.9238 44.9362 70.8788 44.7562C70.795 44.53 70.67 44.33 70.5038 44.1562C70.3388 43.9812 70.145 43.8462 69.9238 43.7512C69.1413 43.2787 68.3013 42.9525 67.405 42.7725C66.5088 42.5937 65.6075 42.5712 64.7038 42.705V40.015C64.9263 40.035 65.1488 40.055 65.3625 40.075C65.8988 40.1487 66.4375 40.1837 66.9788 40.1775C67.2663 40.1937 67.5488 40.1675 67.8263 40.095C68.105 40.0237 68.365 39.91 68.6075 39.7562C68.85 39.6025 69.0625 39.415 69.2463 39.1937C69.43 38.9725 69.5738 38.7287 69.68 38.4612C69.76 38.19 69.7713 37.9162 69.7138 37.64C69.6563 37.3637 69.5375 37.1162 69.3563 36.8987C69.0188 36.6687 68.6463 36.5675 68.2388 36.595C68.0575 36.5812 67.8975 36.635 67.7613 36.7562C66.9175 37.68 66.115 37.4162 65.17 37.1025C64.9875 37.05 64.8038 36.99 64.6213 36.93C64.6213 36.4525 64.6113 35.965 64.6113 35.4875C64.6013 34.2912 64.59 33.1637 64.6313 32.0062C64.64 31.8625 64.66 31.7212 64.6938 31.5812C64.7263 31.4412 64.7713 31.305 64.8275 31.1725C64.885 31.04 64.9525 30.9125 65.03 30.7925C65.1088 30.6712 65.1963 30.5575 65.295 30.4525C65.3925 30.3462 65.4988 30.25 65.6138 30.1625C65.7275 30.075 65.8488 29.9987 65.9775 29.9325C66.105 29.8662 66.2375 29.81 66.375 29.7675C66.5125 29.7237 66.6525 29.6912 66.795 29.6725C67.0688 29.6187 67.3438 29.6112 67.62 29.65C67.895 29.6875 68.1575 29.7712 68.405 29.8975C68.6538 30.025 68.8738 30.19 69.0663 30.3912C69.2588 30.5925 69.4138 30.82 69.5288 31.0725C69.7175 31.68 69.7788 32.2987 69.7113 32.93C69.67 33.6212 69.7525 34.3625 70.625 34.6475C70.7963 34.71 70.9725 34.7375 71.1538 34.7325C71.3363 34.7275 71.51 34.6875 71.6763 34.615C71.8438 34.5412 71.99 34.44 72.1175 34.3112C72.245 34.1812 72.3438 34.0325 72.4125 33.8637C72.5125 33.7275 72.6375 33.6212 72.7875 33.5425C72.9375 33.4637 73.0975 33.4225 73.2663 33.4187C73.4613 33.4325 73.6538 33.4625 73.8438 33.5112C74.0338 33.56 74.2175 33.6262 74.395 33.7087C74.5725 33.7912 74.7413 33.8887 74.9 34.0025C75.06 34.1162 75.2075 34.2437 75.3438 34.3837C75.4788 34.525 75.6013 34.6775 75.7088 34.84C75.8163 35.0037 75.9088 35.1762 75.985 35.3562C76.0613 35.5362 76.12 35.7225 76.1613 35.9137C76.2025 36.105 76.2275 36.2975 76.2325 36.4937C76.245 36.7087 76.235 36.9237 76.205 37.1387C76.1738 37.3525 76.1213 37.5612 76.0488 37.765C75.9763 37.9687 75.8838 38.1625 75.7725 38.3475C75.6613 38.5337 75.5313 38.705 75.385 38.865C75.2388 39.0237 75.0788 39.1675 74.9038 39.295C74.7288 39.4225 74.5425 39.5312 74.3463 39.6212C74.15 39.7112 73.9463 39.7812 73.735 39.8312C73.525 39.88 73.3113 39.9087 73.095 39.915C72.0175 40.0562 71.53 40.5437 71.5913 41.4075C71.595 41.595 71.635 41.775 71.7125 41.9462C71.79 42.1175 71.8988 42.265 72.0388 42.3912C72.2338 42.5325 72.4475 42.6312 72.6813 42.6875C72.9163 42.7437 73.1513 42.7537 73.39 42.7162C73.8075 42.6975 74.2188 42.6325 74.6238 42.5225C75.0275 42.4125 75.415 42.2587 75.785 42.0612C76.155 41.865 76.4988 41.63 76.8163 41.3575C77.1338 41.0837 77.4163 40.7787 77.6663 40.4425C78.1838 39.7325 78.5813 39.8025 79.22 40.2187C79.3575 40.305 79.4875 40.4012 79.6088 40.51C79.73 40.6187 79.8413 40.7375 79.9413 40.865C80.0413 40.9937 80.13 41.1287 80.2063 41.2725C80.2825 41.4162 80.3463 41.565 80.3963 41.72C80.4463 41.875 80.4838 42.0325 80.5063 42.1937C80.5288 42.355 80.5363 42.5162 80.5313 42.6787C80.525 42.8412 80.505 43.0025 80.4713 43.1612C80.4375 43.32 80.3888 43.475 80.3275 43.6262C80.2175 43.9387 80.0663 44.2312 79.875 44.5025C79.6825 44.7725 79.4575 45.0125 79.2 45.2212C78.9413 45.43 78.66 45.6 78.355 45.7312C78.05 45.8625 77.7325 45.9487 77.4038 45.9925C77.14 45.9962 76.8888 46.0525 76.6488 46.16C76.4088 46.2675 76.1988 46.4175 76.02 46.6112C75.9175 46.76 75.8475 46.9237 75.8125 47.1025C75.7775 47.28 75.7788 47.4587 75.8175 47.635C75.8338 47.8337 75.8913 48.02 75.9913 48.1925C76.0913 48.365 76.2225 48.5075 76.3875 48.6212C76.61 48.7462 76.8488 48.8225 77.1038 48.8462C77.3575 48.8712 77.6063 48.8437 77.8488 48.7637C78.5513 48.5662 79.2388 48.33 79.9125 48.0525C80.1863 47.94 80.47 47.8287 80.7563 47.7275C81.025 47.9325 81.24 48.1837 81.4013 48.4812C81.5613 48.7775 81.655 49.095 81.6788 49.4325C81.7163 50.0137 81.6375 50.5787 81.4463 51.1287C81.2538 51.6775 80.9613 52.1687 80.5713 52.6Z" fill="url(#paint1_linear_109_155)"/>
<path d="M92.7288 63.0037L92.3763 63.8662C90.995 67.2487 89.5725 70.7537 88.2525 74.2287C86.2088 79.6262 85.5738 84.1262 86.2563 88.3937C86.49 89.6775 86.8038 90.94 87.1975 92.1837C87.3188 92.5987 87.44 93.01 87.5563 93.425C87.5975 93.5112 87.6288 93.6012 87.6513 93.6937C87.6738 93.7875 87.6863 93.8825 87.6888 93.9775C87.6913 94.0737 87.6838 94.1687 87.6663 94.2625C87.6488 94.3575 87.6225 94.4487 87.585 94.5375C87.5488 94.6262 87.5038 94.71 87.4488 94.7887C87.395 94.8687 87.3325 94.9412 87.2638 95.0075C87.1938 95.0737 87.1188 95.1312 87.0375 95.1825C86.955 95.2325 86.87 95.2737 86.7788 95.3062C86.6438 95.3587 86.5038 95.3937 86.3588 95.4075C86.1238 95.5425 85.8725 95.6087 85.6013 95.605H54.7138C54.2375 95.7275 53.7588 95.7387 53.2763 95.6387C52.795 95.5387 52.36 95.3375 51.9713 95.0362C51.2913 94.1962 50.8138 93.2525 50.5388 92.2087C50.4588 92.005 50.3975 91.8325 50.3575 91.7212C48.7138 92.3312 47.0213 92.7287 45.2775 92.915C43.5338 93.1012 41.795 93.0687 40.06 92.82C38.1538 92.6775 36.36 92.1575 34.675 91.2562C34.3063 91.0012 33.9675 90.71 33.6588 90.385C33.3488 90.0612 33.0763 89.7075 32.8388 89.3275C32.6013 88.9475 32.405 88.5462 32.25 88.125C32.095 87.705 31.9838 87.2725 31.9175 86.83C31.5625 84.9375 31.8363 83.0325 31.6713 81.13C31.5663 80.1237 31.3275 79.15 30.955 78.21C30.5813 77.27 30.0875 76.3975 29.4725 75.5925C29.3675 75.45 29.29 75.2937 29.2413 75.1225L29.0638 74.8925C28.9238 74.655 28.855 74.3987 28.855 74.1237V72.95C28.8538 72.8737 28.8613 72.7987 28.875 72.7237C28.5988 72.2537 28.4663 71.7462 28.4775 71.2012C28.5 70.8837 28.4775 70.57 28.4088 70.26C28.34 69.9487 28.2288 69.655 28.0738 69.3775C27.9188 69.1 27.7275 68.85 27.4988 68.6275C27.2713 68.4062 27.0163 68.2212 26.7338 68.075C26.4838 67.9437 26.2488 67.7912 26.0288 67.6137C25.8088 67.4375 25.6088 67.2412 25.4275 67.0237C25.2475 66.8075 25.09 66.5762 24.955 66.3275C24.82 66.08 24.7113 65.8212 24.6275 65.5525C24.545 65.2825 24.4888 65.0075 24.46 64.7275C24.4313 64.4475 24.43 64.1662 24.4575 63.8862C24.4838 63.605 24.5388 63.33 24.62 63.06C24.7013 62.79 24.8088 62.5312 24.9413 62.2825C25.4988 61.0725 26.205 59.9562 27.0575 58.9325C27.9063 57.9287 28.6075 56.83 29.1588 55.6362C29.7113 54.4425 30.0938 53.1975 30.3088 51.9012C30.5625 50.2762 30.6688 48.5987 30.7725 46.9762C30.8425 45.86 30.915 44.7112 31.035 43.5837C32.1125 33.4712 37.24 26.3587 46.2738 22.4437C49.0063 21.3137 51.8163 20.4287 54.7025 19.7875C57.5888 19.1475 60.51 18.76 63.4638 18.6287C65.245 18.6112 67.015 18.7437 68.775 19.025C70.5338 19.3075 72.2563 19.735 73.9438 20.3075C75.63 20.8812 77.2563 21.5912 78.8225 22.44C80.3888 23.2875 81.8725 24.2612 83.2738 25.36C84.6413 26.4362 85.9063 27.6212 87.07 28.9137C88.2325 30.2075 89.2775 31.59 90.2038 33.0612C91.13 34.5337 91.9238 36.0737 92.585 37.6825C93.2475 39.29 93.7663 40.9437 94.145 42.64C94.5663 44.3212 94.8538 46.025 95.0063 47.7512C95.1588 49.4775 95.175 51.205 95.055 52.9337C94.935 54.6637 94.68 56.3725 94.29 58.0612C93.8988 59.7487 93.3788 61.3962 92.7288 63.0037ZM91.605 44.1737C89.175 32.15 79.9775 23.36 68.1675 21.78C66.1563 21.5312 64.1388 21.4412 62.1138 21.5112C60.0888 21.5825 58.0813 21.8112 56.0925 22.2C54.1038 22.5887 52.1588 23.1325 50.2563 23.8287C48.3538 24.5262 46.5188 25.3687 44.75 26.3575C44.1138 26.685 43.4988 27.0475 42.9025 27.4437C42.3063 27.84 41.7338 28.2687 41.1863 28.7275C40.6375 29.1875 40.1163 29.6762 39.6213 30.1925C39.1263 30.71 38.6625 31.2525 38.2275 31.8212C37.7925 32.3887 37.3913 32.98 37.0213 33.5925C36.6525 34.205 36.3175 34.8362 36.0175 35.485C35.7188 36.135 35.455 36.7987 35.2288 37.4775C35.0038 38.1562 34.815 38.845 34.665 39.545C34.045 42.26 33.7063 45.01 33.6488 47.7937C33.6438 49.0037 33.5375 50.2037 33.33 51.395C33.1225 52.5875 32.8163 53.7537 32.4138 54.8937C32.01 56.0337 31.5138 57.1325 30.9263 58.19C30.3388 59.2475 29.6663 60.2475 28.91 61.1925C28.44 61.7512 28.0263 62.3487 27.67 62.9862C26.97 64.3112 27.1725 65.0625 28.4463 65.85C28.8763 66.085 29.2663 66.3712 29.6175 66.7125C29.9688 67.0525 30.2675 67.4337 30.515 67.855C30.7625 68.2775 30.9475 68.725 31.0725 69.1975C31.1975 69.67 31.2575 70.1512 31.25 70.64C31.2188 70.8762 31.2763 71.0887 31.4225 71.2775C31.6213 71.4237 31.8425 71.4775 32.085 71.44C33.5225 71.4112 35.0113 71.4125 36.515 71.44C36.735 71.43 36.95 71.4637 37.1563 71.54C37.3638 71.6162 37.5475 71.7312 37.7088 71.8825C37.8338 72.0237 37.9263 72.185 37.9838 72.365C38.0425 72.545 38.0625 72.7287 38.0438 72.9175C38.0088 73.7675 37.46 74.2375 36.4963 74.2375C36.0338 74.2375 35.57 74.2387 35.1063 74.2437C34.1588 74.25 33.1863 74.25 32.22 74.235C32.6713 74.9062 33.0663 75.6087 33.4038 76.3425C33.7413 77.0775 34.0188 77.8337 34.235 78.6125C34.45 79.3912 34.6025 80.1837 34.69 80.9862C34.7788 81.79 34.8013 82.595 34.76 83.4025C34.7463 84.9075 34.6575 86.6512 35.5588 87.9487C36.4738 89.2675 38.505 89.5012 39.9725 89.75C46.1913 90.8025 53.1913 88.805 55.965 82.705C56.7788 80.9225 59.4038 82.4687 58.5963 84.2412C57.9988 85.5475 57.2163 86.7325 56.2513 87.7962C55.2863 88.86 54.1825 89.7537 52.94 90.4762C53.285 91.2087 53.5875 91.9237 53.8425 92.5625H84.2638C83.8638 91.215 83.5725 89.845 83.39 88.4512C83.2075 87.0575 83.1363 85.6575 83.175 84.2525C83.215 82.8475 83.365 81.455 83.625 80.0737C83.8863 78.6925 84.2538 77.34 84.7288 76.0175C86.23 71.6262 87.96 67.2325 89.6325 62.985L90.2775 61.3462C90.8088 59.9862 91.2363 58.5962 91.5613 57.1737C91.8863 55.7512 92.105 54.3125 92.2175 52.8587C92.33 51.4037 92.335 49.9487 92.2325 48.4937C92.13 47.0387 91.92 45.5987 91.605 44.1737ZM83.045 46.0012C82.965 45.93 82.8975 45.8475 82.845 45.7537C82.7925 45.6587 82.7575 45.5587 82.74 45.4525C82.7225 45.3462 82.7225 45.24 82.7425 45.1337C82.7613 45.0275 82.7975 44.9275 82.8513 44.8337C82.93 44.6625 82.9988 44.4875 83.0588 44.3087C83.1175 44.13 83.1688 43.9487 83.21 43.765C83.2513 43.5812 83.2838 43.3962 83.3063 43.2087C83.3288 43.0225 83.3413 42.835 83.3438 42.6462C83.3475 42.4575 83.3413 42.27 83.325 42.0825C83.3088 41.895 83.2838 41.7087 83.2488 41.5237C83.2138 41.3387 83.1688 41.155 83.115 40.975C83.0613 40.795 82.9988 40.6175 82.9263 40.4425C82.855 40.2687 82.7738 40.0987 82.685 39.9325C82.595 39.7675 82.4975 39.6062 82.3925 39.45C82.2863 39.295 82.1725 39.145 82.0513 39C81.93 38.8562 81.8025 38.7175 81.6675 38.5875C81.5325 38.4562 81.39 38.3312 81.2425 38.215C81.095 38.0987 80.9413 37.9887 80.7825 37.8887C80.6225 37.7875 80.4588 37.695 80.29 37.61C80.1225 37.5262 79.95 37.45 79.7738 37.3837C79.6588 37.3537 79.5538 37.3062 79.4563 37.24C79.3588 37.1737 79.2763 37.0925 79.2075 36.9975C79.1388 36.9012 79.0888 36.7975 79.0563 36.6837C79.025 36.5712 79.0125 36.455 79.0213 36.3375C79.005 35.9612 78.9538 35.59 78.8688 35.2237C78.7825 34.8562 78.6638 34.5012 78.5113 34.1562C78.3588 33.8112 78.1763 33.4837 77.9625 33.1737C77.7488 32.8637 77.5088 32.575 77.2413 32.31C76.975 32.0437 76.685 31.805 76.3725 31.5937C76.0613 31.3812 75.7325 31.2012 75.3863 31.05C75.0413 30.9 74.6838 30.7837 74.3163 30.7C73.9488 30.6162 73.5775 30.5662 73.2 30.5525C72.8375 30.5462 72.5263 30.4175 72.2663 30.165C70.8038 27.8212 69.2175 26.725 67.2875 26.8062C66.7613 26.7325 66.24 26.76 65.7238 26.8875C65.55 26.9487 65.3575 27.03 65.3575 27.03C65.1963 27.1 65.0338 27.1925 64.78 27.335C64.5975 27.4375 64.4213 27.5487 64.2513 27.67C64.1588 27.7312 64.0675 27.7925 63.9775 27.8625L63.9563 27.8725L63.905 27.9237C63.5875 28.1887 63.2938 28.4762 63.0213 28.7862C63.0113 28.7962 62.91 28.9175 62.8888 28.9387C62.8713 28.9687 62.8513 28.995 62.8275 29.02C62.3675 29.7512 62.0663 30.5425 61.925 31.395V32.0037C61.8525 32.0637 61.775 32.1137 61.6913 32.155C60.3763 32.7162 59.035 33.2062 57.6688 33.6275C57.3013 33.7362 56.9525 33.6962 56.6213 33.5062C55.83 32.9262 55.0575 32.2675 54.3263 31.6287L53.8475 31.2225C53.7738 31.1387 53.6925 31.065 53.6025 31.0012C53.5125 30.9362 53.4163 30.8825 53.3138 30.8387C53.2125 30.795 53.1063 30.7637 52.9975 30.7437C52.8888 30.7237 52.7788 30.7162 52.6675 30.72C52.5575 30.725 52.4488 30.7412 52.3413 30.77C52.2338 30.7975 52.1313 30.8375 52.0338 30.8887C51.935 30.94 51.8438 31.0025 51.7588 31.0737C51.675 31.145 51.5988 31.225 51.5325 31.3137C50.3525 32.5112 49.1338 33.7287 47.965 34.8962L47.8338 35.0175C47.75 35.0825 47.675 35.1562 47.6088 35.2387C47.5413 35.32 47.4838 35.4075 47.4363 35.5025C47.3875 35.5962 47.35 35.695 47.3238 35.7962C47.2975 35.8987 47.2813 36.0025 47.2775 36.1087C47.2725 36.2137 47.28 36.3187 47.2988 36.4225C47.3163 36.5262 47.3463 36.6275 47.3863 36.725C47.4263 36.8225 47.4763 36.915 47.5363 37.0025C47.5963 37.0887 47.665 37.1687 47.7425 37.24L48.4125 38.0325C49.0125 38.7237 49.6313 39.4425 50.17 40.195C50.2688 40.3737 50.3288 40.5637 50.35 40.7662C50.3713 40.9687 50.3513 41.1675 50.2913 41.3612C50.1225 41.8862 49.9263 42.4012 49.7038 42.905C49.52 43.3512 49.3263 43.8187 49.1738 44.2862C48.9713 44.8837 48.7275 45.0775 48.1588 45.0975C47.315 45.1187 46.4725 45.2 45.65 45.28C45.2438 45.3125 44.8463 45.3512 44.4413 45.3825C44.33 45.3762 44.22 45.3837 44.1113 45.4025C44.0013 45.4212 43.895 45.4512 43.7925 45.4937C43.69 45.535 43.5925 45.5875 43.5013 45.6512C43.41 45.7137 43.3275 45.7862 43.2513 45.8675C43.1763 45.9487 43.11 46.0375 43.0538 46.1325C42.9988 46.2287 42.9525 46.3287 42.9188 46.4337C42.885 46.54 42.8625 46.6475 42.8513 46.7575C42.8413 46.8687 42.8425 46.9787 42.8563 47.0887C42.8663 48.6312 42.8663 50.2037 42.8563 51.7162V52.3162C42.8425 52.4262 42.8413 52.5362 42.8525 52.6462C42.8638 52.7575 42.8863 52.865 42.9225 52.97C42.9575 53.075 43.0038 53.175 43.06 53.27C43.1175 53.365 43.185 53.4525 43.2613 53.5325C43.3388 53.6125 43.4238 53.6837 43.5163 53.745C43.6088 53.8062 43.7063 53.8562 43.81 53.8962C43.9138 53.9362 44.0213 53.9637 44.13 53.9787C44.24 53.995 44.3513 53.9987 44.4613 53.99C45.2938 54.03 46.1375 54.1125 46.9488 54.1837L47.9363 54.2737C48.0763 54.2637 48.2138 54.2787 48.3488 54.3187C48.4838 54.3587 48.6075 54.4212 48.72 54.5062C48.8325 54.5912 48.9263 54.6937 49.0013 54.8125C49.0763 54.9325 49.1275 55.0612 49.155 55.1987C49.3938 56.0712 49.7425 56.8962 50.2025 57.675C50.2563 57.7437 50.3038 57.8175 50.3425 57.895C50.3825 57.9725 50.4138 58.0537 50.4363 58.1387C50.4588 58.2225 50.4738 58.3087 50.4788 58.3962C50.4838 58.4825 50.48 58.57 50.4675 58.6562C50.455 58.7425 50.435 58.8275 50.405 58.9087C50.375 58.9912 50.3375 59.07 50.2925 59.1437C50.2463 59.2187 50.1938 59.2875 50.1338 59.3512C50.0738 59.415 50.0088 59.4725 49.9375 59.5225C49.4175 60.0425 48.9288 60.59 48.4738 61.1675C48.22 61.4712 47.9775 61.7762 47.7125 62.07C47.635 62.1425 47.5663 62.2225 47.5063 62.3087C47.445 62.3962 47.395 62.4887 47.355 62.5862C47.3138 62.6837 47.2838 62.785 47.265 62.8887C47.2463 62.9925 47.2388 63.0975 47.2413 63.2037C47.245 63.3087 47.26 63.4125 47.285 63.5162C47.3113 63.6187 47.3463 63.7175 47.3938 63.8112C47.44 63.9062 47.4963 63.9962 47.5625 64.0787C47.6275 64.1612 47.7013 64.2362 47.7838 64.3037C49.0338 65.5912 50.3238 66.8712 51.6538 68.1712C51.72 68.2475 51.7925 68.315 51.8725 68.3762C51.9538 68.4375 52.0388 68.4887 52.13 68.5312C52.2213 68.5737 52.3163 68.6075 52.4138 68.63C52.5113 68.6525 52.6113 68.665 52.7113 68.6675C52.8125 68.6687 52.9125 68.66 53.0113 68.6412C53.11 68.6212 53.2063 68.5925 53.2988 68.5537C53.3913 68.5137 53.4788 68.465 53.5613 68.4075C53.6438 68.35 53.7188 68.2837 53.7875 68.21L57.0175 65.5112C57.3825 65.6625 57.7275 65.8162 58.085 65.9575C59.1313 66.395 60.8788 66.8112 61.8525 67.2675C61.8788 67.2812 61.9038 67.2975 61.925 67.3187V71.4112C61.9425 71.4612 61.9663 71.5075 61.995 71.5525C62.6563 72.72 64.3013 72.9837 65.2963 73.055C65.535 73.0462 65.7613 72.9875 65.975 72.88C66.1875 72.7712 66.3688 72.6237 66.5163 72.435C67.3538 72.6087 68.1938 72.6275 69.0375 72.4887C69.8825 72.3512 70.6738 72.0662 71.4113 71.6337C72.2363 71.1625 73.1 70.7775 74.0025 70.4762C78.045 69.1675 80.0363 66.9137 80.2513 63.4012C80.26 63.24 80.3825 62.945 80.89 62.4987C82.4763 61.0875 84.1913 59.1387 83.44 56.51C83.2475 55.765 83.2038 55.0112 83.3075 54.2487C83.4113 53.4862 83.6563 52.7712 84.04 52.105C84.155 51.8562 84.25 51.6 84.3263 51.3375C84.4025 51.0737 84.46 50.8062 84.4963 50.535C84.5325 50.2637 84.55 49.9912 84.545 49.7175C84.5413 49.4437 84.5175 49.1712 84.4738 48.9012C84.4288 48.6312 84.365 48.365 84.2813 48.1037C84.1975 47.8437 84.095 47.59 83.9738 47.345C83.8525 47.0987 83.7138 46.8637 83.5575 46.6387C83.4 46.4137 83.2288 46.2012 83.04 46.0025L83.045 46.0012ZM61.92 57.0862C59.6038 55.5025 57.135 52.7512 57.205 49.595C57.2663 46.55 59.5313 43.8387 61.92 42.2562V57.0862ZM58.3738 62.8612C56.87 62.06 56.595 62.0287 55.325 63.1862C54.7263 63.735 54.1063 64.2525 53.5588 64.72C53.365 64.8825 53.1713 65.045 53 65.1962L50.5913 63.0962L51.3538 62.2125C51.9938 61.4612 52.5925 60.7512 53.2325 60.0612C53.3738 59.9125 53.4875 59.745 53.5713 59.5587C53.6563 59.3725 53.7075 59.1775 53.7263 58.9737C53.745 58.77 53.7288 58.5687 53.6788 58.3712C53.6288 58.1725 53.5488 57.9875 53.4363 57.8162C52.7763 56.335 52.1463 54.7612 51.5275 53.005C51.4838 52.8137 51.4113 52.6337 51.3088 52.4662C51.205 52.2987 51.0788 52.1525 50.9263 52.0275C50.775 51.9025 50.6063 51.805 50.4225 51.7362C50.2375 51.6675 50.0475 51.63 49.8513 51.625C48.55 51.555 47.465 51.4725 46.3763 51.3312C46.1125 51.2912 45.7163 51.005 45.7063 50.885C45.6538 50.1887 45.6375 49.4912 45.6563 48.7937C45.6663 48.57 45.6663 48.3475 45.6663 48.1237L46.9163 48.0025C47.9413 47.9 48.9163 47.7987 49.8813 47.7375C50.0775 47.73 50.2663 47.6912 50.4488 47.6212C50.6313 47.55 50.7975 47.4525 50.9475 47.3262C51.0975 47.2 51.2225 47.0537 51.3238 46.8862C51.425 46.7187 51.4963 46.5387 51.5375 46.3475C52.1575 44.5812 52.7675 43.0387 53.4163 41.6375C53.5238 41.4637 53.6013 41.2775 53.6475 41.0787C53.6938 40.88 53.7075 40.6787 53.6888 40.475C53.67 40.2712 53.6188 40.0762 53.535 39.89C53.4525 39.7037 53.3413 39.535 53.2038 39.3837C52.5525 38.6537 51.9438 37.9025 51.3438 37.17C51.11 36.8975 50.8875 36.6125 50.6638 36.3487L52.9088 34.1062C53.1725 34.3287 53.4375 34.5425 53.7013 34.765C54.4025 35.3337 55.1138 35.9325 55.805 36.5412C55.96 36.69 56.1363 36.8087 56.3325 36.895C56.53 36.9825 56.735 37.0325 56.95 37.0462C57.165 37.06 57.3763 37.0375 57.5825 36.9762C57.7888 36.9162 57.9788 36.8225 58.1513 36.6937C59.1363 36.1762 60.8125 35.7087 61.9213 35.2837V39.0387C57.8575 40.9587 54.25 45.3237 54.4025 50.0125C54.565 54.9462 58.3563 58.7625 61.9213 60.3962V64.2037C60.7113 63.8275 59.5288 63.38 58.3738 62.8612ZM80.5713 52.6C79.545 53.7162 76.4875 54.0612 75.4613 53.1787C75.3 53.0425 75.1775 52.8762 75.0963 52.6812C73.9675 49.525 71.2363 48.7112 68.9788 48.3675C68.7438 48.3087 68.5063 48.2987 68.2663 48.3375C68.0263 48.3762 67.8038 48.46 67.5975 48.59C67.4538 48.71 67.34 48.8537 67.2563 49.0212C67.1738 49.19 67.1275 49.3675 67.12 49.555C66.9888 50.7625 67.9225 51.0475 68.6438 51.1587C70.3413 51.4125 71.3975 51.8887 71.9663 52.6812C72.27 53.2225 72.4563 53.8012 72.525 54.4175C72.5938 55.0337 72.54 55.64 72.3625 56.2337C72.3625 56.2437 72.3538 56.2537 72.3538 56.2637C72.3388 56.2925 72.3313 56.3237 72.3325 56.3562C72.3088 56.4475 72.2938 56.5412 72.2888 56.6362C72.2838 56.7312 72.2875 56.8262 72.3013 56.92C72.3138 57.0137 72.3363 57.1062 72.3675 57.195C72.4 57.285 72.44 57.3712 72.4888 57.4525C72.5375 57.535 72.5925 57.6112 72.6563 57.6812C72.72 57.7525 72.7913 57.8162 72.8675 57.8725C72.9438 57.9287 73.025 57.9775 73.11 58.0187C73.1963 58.0587 73.2863 58.0912 73.3788 58.1137C73.4688 58.1462 73.5625 58.1687 73.6588 58.1812C73.7538 58.1937 73.85 58.1962 73.9463 58.1875C74.0425 58.1787 74.1363 58.1612 74.2288 58.1325C74.3213 58.1037 74.4088 58.065 74.4938 58.0175C74.5775 57.97 74.655 57.9137 74.7275 57.85C74.7988 57.785 74.8625 57.7137 74.9188 57.635C74.9763 57.5575 75.0238 57.4737 75.0613 57.385C75.1 57.2962 75.1288 57.205 75.1475 57.11C75.2063 56.9075 75.2775 56.7125 75.34 56.52L75.4013 56.3375C75.6438 56.3587 75.8888 56.3887 76.1225 56.41C76.7125 56.4787 77.305 56.51 77.9 56.5012C78.5188 56.465 79.1313 56.3862 79.7388 56.2662C79.9613 56.2275 80.1963 56.195 80.43 56.1562C80.5025 56.3062 80.5625 56.4612 80.6075 56.6225C80.6538 56.7825 80.685 56.9462 80.7013 57.1125C80.7188 57.2787 80.7213 57.445 80.7088 57.6125C80.6963 57.7787 80.6688 57.9425 80.6275 58.105C80.585 58.2662 80.53 58.4237 80.4613 58.5762C80.3913 58.7275 80.31 58.8725 80.215 59.01C80.12 59.1487 80.0138 59.2762 79.8963 59.395C79.7788 59.5137 79.6513 59.6225 79.515 59.7187C79.4863 59.6475 79.4538 59.575 79.425 59.4937C79.3238 59.2312 79.2113 58.9675 79.0988 58.7137C79.02 58.49 78.9 58.29 78.7375 58.1175C78.575 57.9437 78.3838 57.8112 78.165 57.7175C77.9813 57.6612 77.7938 57.6437 77.6038 57.665C77.4125 57.6862 77.2338 57.745 77.0675 57.84C76.9738 57.88 76.885 57.93 76.8025 57.9887C76.7213 58.0487 76.6463 58.1162 76.5788 58.1925C76.5113 58.2687 76.4525 58.3512 76.4038 58.44C76.355 58.53 76.3163 58.6225 76.2888 58.72C76.26 58.8175 76.2425 58.9175 76.2363 59.0187C76.2313 59.12 76.2363 59.2212 76.2525 59.3212C76.2688 59.4212 76.2963 59.5187 76.3338 59.6137C76.3725 59.7075 76.42 59.7962 76.4775 59.88L76.4975 59.9212C76.7463 60.4225 76.9625 60.9375 77.1488 61.465C77.9013 63.6975 77.1288 66.0012 75.3813 66.7425C75.2488 66.5712 75.1275 66.3887 75.005 66.205C74.7738 65.755 74.4388 65.4075 73.9988 65.1587C73.85 65.0937 73.6938 65.06 73.5313 65.0575C73.39 65.0575 73.2538 65.0875 73.125 65.1487C72.8938 65.3012 72.6988 65.4925 72.5413 65.72C72.3838 65.9487 72.2738 66.1975 72.2113 66.4675C72.185 66.5375 72.155 66.605 72.12 66.6712C72.0975 66.7012 72.08 66.735 72.07 66.7725C71.79 67.4187 71.395 67.9862 70.885 68.475C70.3763 68.9625 69.7913 69.3325 69.1325 69.5837C68.4625 69.7737 67.7825 69.825 67.0913 69.7387C66.4 69.6525 65.7525 69.435 65.15 69.0862C64.8713 68.9187 64.6988 68.675 64.6325 68.3562C64.5913 67.3412 64.5913 66.325 64.6013 65.26C64.6013 64.9337 64.6125 64.6 64.6125 64.265C64.785 64.295 64.9488 64.325 65.11 64.3662C65.5463 64.4462 65.9538 64.5287 66.37 64.57C68.7675 64.8137 70.4538 64.1037 71.55 62.3875C71.6163 62.31 71.6738 62.2262 71.7213 62.1375C71.7675 62.0475 71.805 61.9537 71.8325 61.855C71.8588 61.7575 71.875 61.6575 71.8788 61.5562C71.8838 61.455 71.8775 61.355 71.86 61.255C71.8425 61.155 71.815 61.0575 71.7763 60.9637C71.7363 60.87 71.6888 60.7825 71.63 60.6987C71.5713 60.6162 71.505 60.54 71.43 60.4725C71.355 60.4037 71.2725 60.345 71.185 60.2937C71.0438 60.18 70.885 60.1 70.71 60.0525C70.5363 60.005 70.3588 59.9937 70.1788 60.02C69.9788 60.0725 69.7963 60.1625 69.6338 60.2912C69.4713 60.4212 69.3425 60.5762 69.245 60.76C69.1075 60.9712 68.94 61.1575 68.7425 61.315C68.545 61.4737 68.3288 61.5975 68.0925 61.6875C67.855 61.7762 67.6113 61.8275 67.3575 61.8387C67.105 61.8512 66.8575 61.8225 66.6138 61.7562C66.13 61.67 65.6588 61.5387 65.2013 61.3625L64.6825 61.18V57.76C65.0475 57.6887 65.4038 57.6275 65.75 57.5662C66.6325 57.4037 67.4763 57.2525 68.31 57.0375C68.5175 56.9962 68.7088 56.915 68.8825 56.7937C69.055 56.6712 69.1963 56.5187 69.305 56.3375C69.3825 56.1737 69.4225 56.0025 69.4263 55.8225C69.43 55.6412 69.3963 55.4687 69.3263 55.3025C69.3 55.1987 69.2638 55.1 69.2163 55.005C69.1675 54.91 69.11 54.8225 69.0425 54.74C68.9738 54.6587 68.8975 54.585 68.8138 54.5212C68.7288 54.4562 68.6388 54.4025 68.5413 54.3587C68.445 54.3137 68.345 54.2812 68.24 54.26C68.1363 54.2387 68.0313 54.23 67.925 54.2325C67.8188 54.235 67.7138 54.25 67.61 54.2762C67.5075 54.3025 67.4088 54.34 67.3138 54.3887C66.7563 54.55 66.1863 54.6475 65.6063 54.6825L65.4238 54.6937C65.1938 54.745 64.9838 54.7 64.7938 54.56C64.6125 54.3287 64.545 54.0687 64.59 53.7787C64.6313 51.2512 64.6313 48.785 64.59 46.4512C64.5525 46.1362 64.6413 45.8612 64.855 45.6275C65.0288 45.4875 65.2263 45.4412 65.445 45.4862C66.5338 45.6362 67.5925 45.9 68.6238 46.2787C69.4063 46.5612 70.1988 46.6937 70.7063 45.8112C70.8063 45.655 70.8713 45.485 70.9013 45.3012C70.9313 45.1175 70.9238 44.9362 70.8788 44.7562C70.795 44.53 70.67 44.33 70.5038 44.1562C70.3388 43.9812 70.145 43.8462 69.9238 43.7512C69.1413 43.2787 68.3013 42.9525 67.405 42.7725C66.5088 42.5937 65.6075 42.5712 64.7038 42.705V40.015C64.9263 40.035 65.1488 40.055 65.3625 40.075C65.8988 40.1487 66.4375 40.1837 66.9788 40.1775C67.2663 40.1937 67.5488 40.1675 67.8263 40.095C68.105 40.0237 68.365 39.91 68.6075 39.7562C68.85 39.6025 69.0625 39.415 69.2463 39.1937C69.43 38.9725 69.5738 38.7287 69.68 38.4612C69.76 38.19 69.7713 37.9162 69.7138 37.64C69.6563 37.3637 69.5375 37.1162 69.3563 36.8987C69.0188 36.6687 68.6463 36.5675 68.2388 36.595C68.0575 36.5812 67.8975 36.635 67.7613 36.7562C66.9175 37.68 66.115 37.4162 65.17 37.1025C64.9875 37.05 64.8038 36.99 64.6213 36.93C64.6213 36.4525 64.6113 35.965 64.6113 35.4875C64.6013 34.2912 64.59 33.1637 64.6313 32.0062C64.64 31.8625 64.66 31.7212 64.6938 31.5812C64.7263 31.4412 64.7713 31.305 64.8275 31.1725C64.885 31.04 64.9525 30.9125 65.03 30.7925C65.1088 30.6712 65.1963 30.5575 65.295 30.4525C65.3925 30.3462 65.4988 30.25 65.6138 30.1625C65.7275 30.075 65.8488 29.9987 65.9775 29.9325C66.105 29.8662 66.2375 29.81 66.375 29.7675C66.5125 29.7237 66.6525 29.6912 66.795 29.6725C67.0688 29.6187 67.3438 29.6112 67.62 29.65C67.895 29.6875 68.1575 29.7712 68.405 29.8975C68.6538 30.025 68.8738 30.19 69.0663 30.3912C69.2588 30.5925 69.4138 30.82 69.5288 31.0725C69.7175 31.68 69.7788 32.2987 69.7113 32.93C69.67 33.6212 69.7525 34.3625 70.625 34.6475C70.7963 34.71 70.9725 34.7375 71.1538 34.7325C71.3363 34.7275 71.51 34.6875 71.6763 34.615C71.8438 34.5412 71.99 34.44 72.1175 34.3112C72.245 34.1812 72.3438 34.0325 72.4125 33.8637C72.5125 33.7275 72.6375 33.6212 72.7875 33.5425C72.9375 33.4637 73.0975 33.4225 73.2663 33.4187C73.4613 33.4325 73.6538 33.4625 73.8438 33.5112C74.0338 33.56 74.2175 33.6262 74.395 33.7087C74.5725 33.7912 74.7413 33.8887 74.9 34.0025C75.06 34.1162 75.2075 34.2437 75.3438 34.3837C75.4788 34.525 75.6013 34.6775 75.7088 34.84C75.8163 35.0037 75.9088 35.1762 75.985 35.3562C76.0613 35.5362 76.12 35.7225 76.1613 35.9137C76.2025 36.105 76.2275 36.2975 76.2325 36.4937C76.245 36.7087 76.235 36.9237 76.205 37.1387C76.1738 37.3525 76.1213 37.5612 76.0488 37.765C75.9763 37.9687 75.8838 38.1625 75.7725 38.3475C75.6613 38.5337 75.5313 38.705 75.385 38.865C75.2388 39.0237 75.0788 39.1675 74.9038 39.295C74.7288 39.4225 74.5425 39.5312 74.3463 39.6212C74.15 39.7112 73.9463 39.7812 73.735 39.8312C73.525 39.88 73.3113 39.9087 73.095 39.915C72.0175 40.0562 71.53 40.5437 71.5913 41.4075C71.595 41.595 71.635 41.775 71.7125 41.9462C71.79 42.1175 71.8988 42.265 72.0388 42.3912C72.2338 42.5325 72.4475 42.6312 72.6813 42.6875C72.9163 42.7437 73.1513 42.7537 73.39 42.7162C73.8075 42.6975 74.2188 42.6325 74.6238 42.5225C75.0275 42.4125 75.415 42.2587 75.785 42.0612C76.155 41.865 76.4988 41.63 76.8163 41.3575C77.1338 41.0837 77.4163 40.7787 77.6663 40.4425C78.1838 39.7325 78.5813 39.8025 79.22 40.2187C79.3575 40.305 79.4875 40.4012 79.6088 40.51C79.73 40.6187 79.8413 40.7375 79.9413 40.865C80.0413 40.9937 80.13 41.1287 80.2063 41.2725C80.2825 41.4162 80.3463 41.565 80.3963 41.72C80.4463 41.875 80.4838 42.0325 80.5063 42.1937C80.5288 42.355 80.5363 42.5162 80.5313 42.6787C80.525 42.8412 80.505 43.0025 80.4713 43.1612C80.4375 43.32 80.3888 43.475 80.3275 43.6262C80.2175 43.9387 80.0663 44.2312 79.875 44.5025C79.6825 44.7725 79.4575 45.0125 79.2 45.2212C78.9413 45.43 78.66 45.6 78.355 45.7312C78.05 45.8625 77.7325 45.9487 77.4038 45.9925C77.14 45.9962 76.8888 46.0525 76.6488 46.16C76.4088 46.2675 76.1988 46.4175 76.02 46.6112C75.9175 46.76 75.8475 46.9237 75.8125 47.1025C75.7775 47.28 75.7788 47.4587 75.8175 47.635C75.8338 47.8337 75.8913 48.02 75.9913 48.1925C76.0913 48.365 76.2225 48.5075 76.3875 48.6212C76.61 48.7462 76.8488 48.8225 77.1038 48.8462C77.3575 48.8712 77.6063 48.8437 77.8488 48.7637C78.5513 48.5662 79.2388 48.33 79.9125 48.0525C80.1863 47.94 80.47 47.8287 80.7563 47.7275C81.025 47.9325 81.24 48.1837 81.4013 48.4812C81.5613 48.7775 81.655 49.095 81.6788 49.4325C81.7163 50.0137 81.6375 50.5787 81.4463 51.1287C81.2538 51.6775 80.9613 52.1687 80.5713 52.6Z" fill="url(#paint2_linear_109_155)"/>
</g>
<defs>
<linearGradient id="paint0_linear_109_155" x1="98.8204" y1="15.2157" x2="486.409" y2="168.641" gradientUnits="userSpaceOnUse">
<stop stop-color="#3A8EF6"/>
<stop offset="1" stop-color="#6F3AFA"/>
</linearGradient>
<linearGradient id="paint1_linear_109_155" x1="59.786" y1="18.6272" x2="59.786" y2="95.7061" gradientUnits="userSpaceOnUse">
<stop stop-color="#3A8EF6"/>
<stop offset="1" stop-color="#6F3AFA"/>
</linearGradient>
<linearGradient id="paint2_linear_109_155" x1="18.9343" y1="-11.5999" x2="179.904" y2="4.2847" gradientUnits="userSpaceOnUse">
<stop stop-color="#3A8EF6"/>
<stop offset="1" stop-color="#6F3AFA"/>
</linearGradient>
</defs>
</svg>
