<svg width="192" height="34" viewBox="0 0 192 34" fill="none" xmlns="http://www.w3.org/2000/svg">
<path d="M9.85408 33V8.45125H0.172879V2.74626H26.5369V8.45125H16.8557V33H9.85408ZM39.133 33.3458C37.2025 33.3458 35.4738 32.9712 33.9467 32.222C32.4484 31.4729 31.2814 30.3348 30.4459 28.8077C29.6103 27.2518 29.1925 25.2781 29.1925 22.8866V9.74784H35.9348V21.8926C35.9348 23.823 36.3381 25.2493 37.1449 26.1713C37.9805 27.0645 39.1474 27.5111 40.6457 27.5111C41.683 27.5111 42.605 27.295 43.4118 26.8628C44.2185 26.4018 44.8524 25.7103 45.3134 24.7883C45.7744 23.8374 46.0049 22.6561 46.0049 21.2443V9.74784H52.7472V33H46.3507V26.6035L47.5176 28.4619C46.7397 30.0755 45.5871 31.3 44.0601 32.1356C42.5618 32.9424 40.9194 33.3458 39.133 33.3458ZM88.7718 9.40208C90.6158 9.40208 92.2437 9.77665 93.6556 10.5258C95.0962 11.2461 96.22 12.3698 97.0267 13.8969C97.8623 15.3952 98.2801 17.3257 98.2801 19.6884V33H91.5378V20.7256C91.5378 18.8528 91.1489 17.4697 90.3709 16.5765C89.5929 15.6833 88.498 15.2367 87.0862 15.2367C86.1066 15.2367 85.2278 15.4672 84.4498 15.9282C83.6719 16.3604 83.0668 17.0231 82.6346 17.9163C82.2024 18.8096 81.9863 19.9477 81.9863 21.3307V33H75.244V20.7256C75.244 18.8528 74.855 17.4697 74.0771 16.5765C73.328 15.6833 72.2475 15.2367 70.8356 15.2367C69.856 15.2367 68.9772 15.4672 68.1992 15.9282C67.4213 16.3604 66.8162 17.0231 66.384 17.9163C65.9518 18.8096 65.7357 19.9477 65.7357 21.3307V33H58.9934V9.74784H65.4332V16.1011L64.223 14.2427C65.0298 12.658 66.1679 11.4622 67.6374 10.6554C69.1357 9.81987 70.8356 9.40208 72.7373 9.40208C74.8695 9.40208 76.7279 9.94953 78.3126 11.0444C79.9262 12.1105 80.9922 13.7529 81.5109 15.9715L79.1338 15.3232C79.9117 13.5079 81.1507 12.0673 82.8507 11.0012C84.5795 9.93512 86.5532 9.40208 88.7718 9.40208ZM115.556 33.3458C113.079 33.3458 110.874 32.8271 108.944 31.7899C107.042 30.7526 105.53 29.3407 104.406 27.5543C103.311 25.7391 102.763 23.679 102.763 21.3739C102.763 19.0401 103.311 16.9799 104.406 15.1935C105.53 13.3783 107.042 11.9664 108.944 10.958C110.874 9.92072 113.079 9.40208 115.556 9.40208C118.006 9.40208 120.195 9.92072 122.126 10.958C124.056 11.9664 125.569 13.3639 126.664 15.1503C127.759 16.9367 128.306 19.0112 128.306 21.3739C128.306 23.679 127.759 25.7391 126.664 27.5543C125.569 29.3407 124.056 30.7526 122.126 31.7899C120.195 32.8271 118.006 33.3458 115.556 33.3458ZM115.556 27.8136C116.68 27.8136 117.689 27.5543 118.582 27.0357C119.475 26.5171 120.181 25.7823 120.7 24.8315C121.218 23.8518 121.478 22.6993 121.478 21.3739C121.478 20.0197 121.218 18.8672 120.7 17.9163C120.181 16.9655 119.475 16.2308 118.582 15.7121C117.689 15.1935 116.68 14.9342 115.556 14.9342C114.433 14.9342 113.424 15.1935 112.531 15.7121C111.638 16.2308 110.918 16.9655 110.37 17.9163C109.851 18.8672 109.592 20.0197 109.592 21.3739C109.592 22.6993 109.851 23.8518 110.37 24.8315C110.918 25.7823 111.638 26.5171 112.531 27.0357C113.424 27.5543 114.433 27.8136 115.556 27.8136ZM132.813 33V9.74784H139.253V16.3172L138.345 14.4156C139.037 12.7732 140.146 11.5342 141.673 10.6987C143.2 9.83428 145.058 9.40208 147.248 9.40208V15.6257C146.96 15.5969 146.701 15.5825 146.47 15.5825C146.24 15.5537 145.995 15.5393 145.736 15.5393C143.892 15.5393 142.393 16.0723 141.241 17.1384C140.117 18.1757 139.555 19.8036 139.555 22.0222V33H132.813ZM152.896 33.2161C152.262 33.2161 151.714 32.9856 151.253 32.5246C150.821 32.0636 150.605 31.5017 150.605 30.839C150.605 30.1475 150.821 29.5856 151.253 29.1535C151.714 28.7213 152.262 28.5052 152.896 28.5052C153.529 28.5052 154.062 28.7213 154.495 29.1535C154.956 29.5856 155.186 30.1475 155.186 30.839C155.186 31.5017 154.956 32.0636 154.495 32.5246C154.062 32.9856 153.529 33.2161 152.896 33.2161ZM176.393 33V27.9865L176.264 27.1653V18.7807C176.264 16.8503 175.716 15.3664 174.621 14.3291C173.555 13.2918 171.956 12.7732 169.824 12.7732C168.354 12.7732 166.957 13.0181 165.631 13.5079C164.306 13.9978 163.182 14.6461 162.26 15.4528L160.877 13.1622C162.03 12.1825 163.413 11.4334 165.026 10.9148C166.64 10.3673 168.34 10.0936 170.126 10.0936C173.065 10.0936 175.327 10.8283 176.912 12.2978C178.525 13.7384 179.332 15.9427 179.332 18.9104V33H176.393ZM168.57 33.2161C166.87 33.2161 165.387 32.9424 164.119 32.3949C162.88 31.8187 161.929 31.0407 161.266 30.0611C160.604 29.0526 160.272 27.9001 160.272 26.6035C160.272 25.4222 160.546 24.3561 161.093 23.4052C161.67 22.4256 162.592 21.6476 163.859 21.0714C165.156 20.4663 166.885 20.1638 169.046 20.1638H176.869V22.4544H169.132C166.942 22.4544 165.415 22.8434 164.551 23.6213C163.715 24.3993 163.298 25.3645 163.298 26.5171C163.298 27.8136 163.802 28.8509 164.81 29.6289C165.819 30.4068 167.231 30.7958 169.046 30.7958C170.775 30.7958 172.258 30.4068 173.497 29.6289C174.765 28.8221 175.687 27.6696 176.264 26.1713L176.955 28.2891C176.379 29.7873 175.37 30.9831 173.93 31.8763C172.518 32.7695 170.731 33.2161 168.57 33.2161ZM187.667 33V10.3097H190.735V33H187.667ZM189.223 5.29622C188.589 5.29622 188.056 5.08012 187.624 4.64792C187.191 4.21573 186.975 3.69709 186.975 3.09201C186.975 2.48694 187.191 1.98271 187.624 1.57933C188.056 1.14713 188.589 0.931032 189.223 0.931032C189.857 0.931032 190.39 1.13272 190.822 1.53611C191.254 1.93949 191.47 2.44372 191.47 3.04879C191.47 3.68268 191.254 4.21573 190.822 4.64792C190.418 5.08012 189.885 5.29622 189.223 5.29622Z" fill="url(#paint0_linear_72_1160)"/>
<defs>
<linearGradient id="paint0_linear_72_1160" x1="-15.1796" y1="-29.7843" x2="372.409" y2="123.641" gradientUnits="userSpaceOnUse">
<stop stop-color="#3A8EF6"/>
<stop offset="1" stop-color="#6F3AFA"/>
</linearGradient>
</defs>
</svg>
