<svg width="309" height="120" viewBox="0 0 309 120" fill="none" xmlns="http://www.w3.org/2000/svg">
<path d="M123.854 78.2842V53.7354H114.173V48.0304H140.537V53.7354H130.856V78.2842H123.854ZM153.133 78.6299C151.203 78.6299 149.474 78.2554 147.947 77.5062C146.448 76.7571 145.281 75.619 144.446 74.0919C143.61 72.536 143.192 70.5623 143.192 68.1708V55.032H149.935V67.1767C149.935 69.1072 150.338 70.5335 151.145 71.4555C151.98 72.3487 153.147 72.7953 154.646 72.7953C155.683 72.7953 156.605 72.5792 157.412 72.147C158.219 71.686 158.852 70.9945 159.313 70.0724C159.774 69.1216 160.005 67.9403 160.005 66.5284V55.032H166.747V78.2842H160.351V71.8877L161.518 73.7461C160.74 75.3597 159.587 76.5842 158.06 77.4198C156.562 78.2266 154.919 78.6299 153.133 78.6299ZM202.772 54.6863C204.616 54.6863 206.244 55.0608 207.656 55.81C209.096 56.5303 210.22 57.654 211.027 59.1811C211.862 60.6794 212.28 62.6099 212.28 64.9725V78.2842H205.538V66.0098C205.538 64.137 205.149 62.7539 204.371 61.8607C203.593 60.9675 202.498 60.5209 201.086 60.5209C200.107 60.5209 199.228 60.7514 198.45 61.2124C197.672 61.6446 197.067 62.3073 196.635 63.2005C196.202 64.0937 195.986 65.2319 195.986 66.6149V78.2842H189.244V66.0098C189.244 64.137 188.855 62.7539 188.077 61.8607C187.328 60.9675 186.247 60.5209 184.836 60.5209C183.856 60.5209 182.977 60.7514 182.199 61.2124C181.421 61.6446 180.816 62.3073 180.384 63.2005C179.952 64.0937 179.736 65.2319 179.736 66.6149V78.2842H172.993V55.032H179.433V61.3853L178.223 59.5269C179.03 57.9421 180.168 56.7464 181.637 55.9396C183.136 55.1041 184.836 54.6863 186.737 54.6863C188.869 54.6863 190.728 55.2337 192.313 56.3286C193.926 57.3947 194.992 59.037 195.511 61.2556L193.134 60.6074C193.912 58.7921 195.151 57.3515 196.851 56.2854C198.579 55.2193 200.553 54.6863 202.772 54.6863ZM229.556 78.6299C227.079 78.6299 224.874 78.1113 222.944 77.074C221.042 76.0368 219.53 74.6249 218.406 72.8385C217.311 71.0233 216.763 68.9631 216.763 66.6581C216.763 64.3242 217.311 62.2641 218.406 60.4777C219.53 58.6625 221.042 57.2506 222.944 56.2422C224.874 55.2049 227.079 54.6863 229.556 54.6863C232.006 54.6863 234.195 55.2049 236.126 56.2422C238.056 57.2506 239.569 58.6481 240.664 60.4345C241.759 62.2209 242.306 64.2954 242.306 66.6581C242.306 68.9631 241.759 71.0233 240.664 72.8385C239.569 74.6249 238.056 76.0368 236.126 77.074C234.195 78.1113 232.006 78.6299 229.556 78.6299ZM229.556 73.0978C230.68 73.0978 231.689 72.8385 232.582 72.3199C233.475 71.8012 234.181 71.0665 234.7 70.1157C235.218 69.136 235.478 67.9835 235.478 66.6581C235.478 65.3039 235.218 64.1514 234.7 63.2005C234.181 62.2497 233.475 61.515 232.582 60.9963C231.689 60.4777 230.68 60.2184 229.556 60.2184C228.433 60.2184 227.424 60.4777 226.531 60.9963C225.638 61.515 224.918 62.2497 224.37 63.2005C223.851 64.1514 223.592 65.3039 223.592 66.6581C223.592 67.9835 223.851 69.136 224.37 70.1157C224.918 71.0665 225.638 71.8012 226.531 72.3199C227.424 72.8385 228.433 73.0978 229.556 73.0978ZM246.813 78.2842V55.032H253.253V61.6014L252.345 59.6997C253.037 58.0574 254.146 56.8184 255.673 55.9828C257.2 55.1185 259.058 54.6863 261.248 54.6863V60.9099C260.96 60.8811 260.701 60.8667 260.47 60.8667C260.24 60.8379 259.995 60.8234 259.736 60.8234C257.892 60.8234 256.393 61.3565 255.241 62.4226C254.117 63.4598 253.555 65.0878 253.555 67.3064V78.2842H246.813ZM266.896 78.5003C266.262 78.5003 265.714 78.2698 265.253 77.8088C264.821 77.3478 264.605 76.7859 264.605 76.1232C264.605 75.4317 264.821 74.8698 265.253 74.4376C265.714 74.0054 266.262 73.7893 266.896 73.7893C267.529 73.7893 268.062 74.0054 268.495 74.4376C268.956 74.8698 269.186 75.4317 269.186 76.1232C269.186 76.7859 268.956 77.3478 268.495 77.8088C268.062 78.2698 267.529 78.5003 266.896 78.5003ZM290.393 78.2842V73.2707L290.264 72.4495V64.0649C290.264 62.1344 289.716 60.6506 288.621 59.6133C287.555 58.576 285.956 58.0574 283.824 58.0574C282.354 58.0574 280.957 58.3023 279.631 58.7921C278.306 59.2819 277.182 59.9302 276.26 60.737L274.877 58.4464C276.03 57.4667 277.413 56.7176 279.026 56.1989C280.64 55.6515 282.34 55.3778 284.126 55.3778C287.065 55.3778 289.327 56.1125 290.912 57.582C292.525 59.0226 293.332 61.2268 293.332 64.1946V78.2842H290.393ZM282.57 78.5003C280.87 78.5003 279.387 78.2266 278.119 77.6791C276.88 77.1028 275.929 76.3249 275.266 75.3452C274.604 74.3368 274.272 73.1843 274.272 71.8877C274.272 70.7063 274.546 69.6403 275.093 68.6894C275.67 67.7098 276.592 66.9318 277.859 66.3556C279.156 65.7505 280.885 65.4479 283.046 65.4479H290.869V67.7386H283.132C280.942 67.7386 279.415 68.1276 278.551 68.9055C277.715 69.6835 277.298 70.6487 277.298 71.8012C277.298 73.0978 277.802 74.1351 278.81 74.913C279.819 75.691 281.231 76.08 283.046 76.08C284.775 76.08 286.258 75.691 287.497 74.913C288.765 74.1063 289.687 72.9538 290.264 71.4555L290.955 73.5732C290.379 75.0715 289.37 76.2673 287.93 77.1605C286.518 78.0537 284.731 78.5003 282.57 78.5003ZM301.667 78.2842V55.5939H304.735V78.2842H301.667ZM303.223 50.5804C302.589 50.5804 302.056 50.3643 301.624 49.9321C301.191 49.4999 300.975 48.9813 300.975 48.3762C300.975 47.7711 301.191 47.2669 301.624 46.8635C302.056 46.4313 302.589 46.2152 303.223 46.2152C303.857 46.2152 304.39 46.4169 304.822 46.8203C305.254 47.2237 305.47 47.7279 305.47 48.333C305.47 48.9669 305.254 49.4999 304.822 49.9321C304.418 50.3643 303.885 50.5804 303.223 50.5804Z" fill="white"/>
<mask id="mask0_127_764" style="mask-type:luminance" maskUnits="userSpaceOnUse" x="24" y="18" width="72" height="78">
<path d="M24.32 18.5601H95.36V95.9101H24.32V18.5601Z" fill="white"/>
</mask>
<g mask="url(#mask0_127_764)">
<path d="M92.7288 63.004L92.3763 63.8665C90.995 67.249 89.5725 70.754 88.2525 74.229C86.2088 79.6265 85.5738 84.1265 86.2563 88.394C86.49 89.6777 86.8038 90.9402 87.1975 92.184C87.3188 92.599 87.44 93.0102 87.5563 93.4252C87.5975 93.5115 87.6288 93.6015 87.6513 93.694C87.6738 93.7877 87.6863 93.8827 87.6888 93.9777C87.6913 94.074 87.6838 94.169 87.6663 94.2627C87.6488 94.3577 87.6225 94.449 87.585 94.5377C87.5488 94.6265 87.5038 94.7102 87.4488 94.789C87.395 94.869 87.3325 94.9415 87.2638 95.0077C87.1938 95.074 87.1188 95.1315 87.0375 95.1827C86.955 95.2327 86.87 95.274 86.7788 95.3065C86.6438 95.359 86.5038 95.394 86.3588 95.4077C86.1238 95.5427 85.8725 95.609 85.6013 95.6052H54.7138C54.2375 95.7277 53.7588 95.739 53.2763 95.639C52.795 95.539 52.36 95.3377 51.9713 95.0365C51.2913 94.1965 50.8138 93.2527 50.5388 92.209C50.4588 92.0052 50.3975 91.8327 50.3575 91.7215C48.7138 92.3315 47.0213 92.729 45.2775 92.9152C43.5338 93.1015 41.795 93.069 40.06 92.8202C38.1538 92.6777 36.36 92.1577 34.675 91.2565C34.3063 91.0015 33.9675 90.7102 33.6588 90.3852C33.3488 90.0615 33.0763 89.7077 32.8388 89.3277C32.6013 88.9477 32.405 88.5465 32.25 88.1252C32.095 87.7052 31.9838 87.2727 31.9175 86.8302C31.5625 84.9377 31.8363 83.0327 31.6713 81.1302C31.5663 80.124 31.3275 79.1502 30.955 78.2102C30.5813 77.2702 30.0875 76.3977 29.4725 75.5927C29.3675 75.4502 29.29 75.294 29.2413 75.1227L29.0638 74.8927C28.9238 74.6552 28.855 74.399 28.855 74.124V72.9502C28.8538 72.874 28.8613 72.799 28.875 72.724C28.5988 72.254 28.4663 71.7465 28.4775 71.2015C28.5 70.884 28.4775 70.5702 28.4088 70.2602C28.34 69.949 28.2288 69.6552 28.0738 69.3777C27.9188 69.1002 27.7275 68.8502 27.4988 68.6277C27.2713 68.4065 27.0163 68.2215 26.7338 68.0752C26.4838 67.944 26.2488 67.7915 26.0288 67.614C25.8088 67.4377 25.6088 67.2415 25.4275 67.024C25.2475 66.8077 25.09 66.5765 24.955 66.3277C24.82 66.0802 24.7113 65.8215 24.6275 65.5527C24.545 65.2827 24.4888 65.0077 24.46 64.7277C24.4313 64.4477 24.43 64.1665 24.4575 63.8865C24.4838 63.6052 24.5388 63.3302 24.62 63.0602C24.7013 62.7902 24.8088 62.5315 24.9413 62.2827C25.4988 61.0727 26.205 59.9565 27.0575 58.9327C27.9063 57.929 28.6075 56.8302 29.1588 55.6365C29.7113 54.4427 30.0938 53.1977 30.3088 51.9015C30.5625 50.2765 30.6688 48.599 30.7725 46.9765C30.8425 45.8602 30.915 44.7115 31.035 43.584C32.1125 33.4715 37.24 26.359 46.2738 22.444C49.0063 21.314 51.8163 20.429 54.7025 19.7877C57.5888 19.1477 60.51 18.7602 63.4638 18.629C65.245 18.6115 67.015 18.744 68.775 19.0252C70.5338 19.3077 72.2563 19.7352 73.9438 20.3077C75.63 20.8815 77.2563 21.5915 78.8225 22.4402C80.3888 23.2877 81.8725 24.2615 83.2738 25.3602C84.6413 26.4365 85.9063 27.6215 87.07 28.914C88.2325 30.2077 89.2775 31.5902 90.2038 33.0615C91.13 34.534 91.9238 36.074 92.585 37.6827C93.2475 39.2902 93.7663 40.944 94.145 42.6402C94.5663 44.3215 94.8538 46.0252 95.0063 47.7515C95.1588 49.4777 95.175 51.2052 95.055 52.934C94.935 54.664 94.68 56.3727 94.29 58.0615C93.8988 59.749 93.3788 61.3965 92.7288 63.004ZM91.605 44.174C89.175 32.1502 79.9775 23.3602 68.1675 21.7802C66.1563 21.5315 64.1388 21.4415 62.1138 21.5115C60.0888 21.5827 58.0813 21.8115 56.0925 22.2002C54.1038 22.589 52.1588 23.1327 50.2563 23.829C48.3538 24.5265 46.5188 25.369 44.75 26.3577C44.1138 26.6852 43.4988 27.0477 42.9025 27.444C42.3063 27.8402 41.7338 28.269 41.1863 28.7277C40.6375 29.1877 40.1163 29.6765 39.6213 30.1927C39.1263 30.7102 38.6625 31.2527 38.2275 31.8215C37.7925 32.389 37.3913 32.9802 37.0213 33.5927C36.6525 34.2052 36.3175 34.8365 36.0175 35.4852C35.7188 36.1352 35.455 36.799 35.2288 37.4777C35.0038 38.1565 34.815 38.8452 34.665 39.5452C34.045 42.2602 33.7063 45.0102 33.6488 47.794C33.6438 49.004 33.5375 50.204 33.33 51.3952C33.1225 52.5877 32.8163 53.754 32.4138 54.894C32.01 56.034 31.5138 57.1327 30.9263 58.1902C30.3388 59.2477 29.6663 60.2477 28.91 61.1927C28.44 61.7515 28.0263 62.349 27.67 62.9865C26.97 64.3115 27.1725 65.0627 28.4463 65.8502C28.8763 66.0852 29.2663 66.3715 29.6175 66.7127C29.9688 67.0527 30.2675 67.434 30.515 67.8552C30.7625 68.2777 30.9475 68.7252 31.0725 69.1977C31.1975 69.6702 31.2575 70.1515 31.25 70.6402C31.2188 70.8765 31.2763 71.089 31.4225 71.2777C31.6213 71.424 31.8425 71.4777 32.085 71.4402C33.5225 71.4115 35.0113 71.4127 36.515 71.4402C36.735 71.4302 36.95 71.464 37.1563 71.5402C37.3638 71.6165 37.5475 71.7315 37.7088 71.8827C37.8338 72.024 37.9263 72.1852 37.9838 72.3652C38.0425 72.5452 38.0625 72.729 38.0438 72.9177C38.0088 73.7677 37.46 74.2377 36.4963 74.2377C36.0338 74.2377 35.57 74.239 35.1063 74.244C34.1588 74.2502 33.1863 74.2502 32.22 74.2352C32.6713 74.9065 33.0663 75.609 33.4038 76.3427C33.7413 77.0777 34.0188 77.834 34.235 78.6127C34.45 79.3915 34.6025 80.184 34.69 80.9865C34.7788 81.7902 34.8013 82.5952 34.76 83.4027C34.7463 84.9077 34.6575 86.6515 35.5588 87.949C36.4738 89.2677 38.505 89.5015 39.9725 89.7502C46.1913 90.8027 53.1913 88.8052 55.965 82.7052C56.7788 80.9227 59.4038 82.469 58.5963 84.2415C57.9988 85.5477 57.2163 86.7327 56.2513 87.7965C55.2863 88.8602 54.1825 89.754 52.94 90.4765C53.285 91.209 53.5875 91.924 53.8425 92.5627H84.2638C83.8638 91.2152 83.5725 89.8452 83.39 88.4515C83.2075 87.0577 83.1363 85.6577 83.175 84.2527C83.215 82.8477 83.365 81.4552 83.625 80.074C83.8863 78.6927 84.2538 77.3402 84.7288 76.0177C86.23 71.6265 87.96 67.2327 89.6325 62.9852L90.2775 61.3465C90.8088 59.9865 91.2363 58.5965 91.5613 57.174C91.8863 55.7515 92.105 54.3127 92.2175 52.859C92.33 51.404 92.335 49.949 92.2325 48.494C92.13 47.039 91.92 45.599 91.605 44.174ZM83.045 46.0015C82.965 45.9302 82.8975 45.8477 82.845 45.754C82.7925 45.659 82.7575 45.559 82.74 45.4527C82.7225 45.3465 82.7225 45.2402 82.7425 45.134C82.7613 45.0277 82.7975 44.9277 82.8513 44.834C82.93 44.6627 82.9988 44.4877 83.0588 44.309C83.1175 44.1302 83.1688 43.949 83.21 43.7652C83.2513 43.5815 83.2838 43.3965 83.3063 43.209C83.3288 43.0227 83.3413 42.8352 83.3438 42.6465C83.3475 42.4577 83.3413 42.2702 83.325 42.0827C83.3088 41.8952 83.2838 41.709 83.2488 41.524C83.2138 41.339 83.1688 41.1552 83.115 40.9752C83.0613 40.7952 82.9988 40.6177 82.9263 40.4427C82.855 40.269 82.7738 40.099 82.685 39.9327C82.595 39.7677 82.4975 39.6065 82.3925 39.4502C82.2863 39.2952 82.1725 39.1452 82.0513 39.0002C81.93 38.8565 81.8025 38.7177 81.6675 38.5877C81.5325 38.4565 81.39 38.3315 81.2425 38.2152C81.095 38.099 80.9413 37.989 80.7825 37.889C80.6225 37.7877 80.4588 37.6952 80.29 37.6102C80.1225 37.5265 79.95 37.4502 79.7738 37.384C79.6588 37.354 79.5538 37.3065 79.4563 37.2402C79.3588 37.174 79.2763 37.0927 79.2075 36.9977C79.1388 36.9015 79.0888 36.7977 79.0563 36.684C79.025 36.5715 79.0125 36.4552 79.0213 36.3377C79.005 35.9615 78.9538 35.5902 78.8688 35.224C78.7825 34.8565 78.6638 34.5015 78.5113 34.1565C78.3588 33.8115 78.1763 33.484 77.9625 33.174C77.7488 32.864 77.5088 32.5752 77.2413 32.3102C76.975 32.044 76.685 31.8052 76.3725 31.594C76.0613 31.3815 75.7325 31.2015 75.3863 31.0502C75.0413 30.9002 74.6838 30.784 74.3163 30.7002C73.9488 30.6165 73.5775 30.5665 73.2 30.5527C72.8375 30.5465 72.5263 30.4177 72.2663 30.1652C70.8038 27.8215 69.2175 26.7252 67.2875 26.8065C66.7613 26.7327 66.24 26.7602 65.7238 26.8877C65.55 26.949 65.3575 27.0302 65.3575 27.0302C65.1963 27.1002 65.0338 27.1927 64.78 27.3352C64.5975 27.4377 64.4213 27.549 64.2513 27.6702C64.1588 27.7315 64.0675 27.7927 63.9775 27.8627L63.9563 27.8727L63.905 27.924C63.5875 28.189 63.2938 28.4765 63.0213 28.7865C63.0113 28.7965 62.91 28.9177 62.8888 28.939C62.8713 28.969 62.8513 28.9952 62.8275 29.0202C62.3675 29.7515 62.0663 30.5427 61.925 31.3952V32.004C61.8525 32.064 61.775 32.114 61.6913 32.1552C60.3763 32.7165 59.035 33.2065 57.6688 33.6277C57.3013 33.7365 56.9525 33.6965 56.6213 33.5065C55.83 32.9265 55.0575 32.2677 54.3263 31.629L53.8475 31.2227C53.7738 31.139 53.6925 31.0652 53.6025 31.0015C53.5125 30.9365 53.4163 30.8827 53.3138 30.839C53.2125 30.7952 53.1063 30.764 52.9975 30.744C52.8888 30.724 52.7788 30.7165 52.6675 30.7202C52.5575 30.7252 52.4488 30.7415 52.3413 30.7702C52.2338 30.7977 52.1313 30.8377 52.0338 30.889C51.935 30.9402 51.8438 31.0027 51.7588 31.074C51.675 31.1452 51.5988 31.2252 51.5325 31.314C50.3525 32.5115 49.1338 33.729 47.965 34.8965L47.8338 35.0177C47.75 35.0827 47.675 35.1565 47.6088 35.239C47.5413 35.3202 47.4838 35.4077 47.4363 35.5027C47.3875 35.5965 47.35 35.6952 47.3238 35.7965C47.2975 35.899 47.2813 36.0027 47.2775 36.109C47.2725 36.214 47.28 36.319 47.2988 36.4227C47.3163 36.5265 47.3463 36.6277 47.3863 36.7252C47.4263 36.8227 47.4763 36.9152 47.5363 37.0027C47.5963 37.089 47.665 37.169 47.7425 37.2402L48.4125 38.0327C49.0125 38.724 49.6313 39.4427 50.17 40.1952C50.2688 40.374 50.3288 40.564 50.35 40.7665C50.3713 40.969 50.3513 41.1677 50.2913 41.3615C50.1225 41.8865 49.9263 42.4015 49.7038 42.9052C49.52 43.3515 49.3263 43.819 49.1738 44.2865C48.9713 44.884 48.7275 45.0777 48.1588 45.0977C47.315 45.119 46.4725 45.2002 45.65 45.2802C45.2438 45.3127 44.8463 45.3515 44.4413 45.3827C44.33 45.3765 44.22 45.384 44.1113 45.4027C44.0013 45.4215 43.895 45.4515 43.7925 45.494C43.69 45.5352 43.5925 45.5877 43.5013 45.6515C43.41 45.714 43.3275 45.7865 43.2513 45.8677C43.1763 45.949 43.11 46.0377 43.0538 46.1327C42.9988 46.229 42.9525 46.329 42.9188 46.434C42.885 46.5402 42.8625 46.6477 42.8513 46.7577C42.8413 46.869 42.8425 46.979 42.8563 47.089C42.8663 48.6315 42.8663 50.204 42.8563 51.7165V52.3165C42.8425 52.4265 42.8413 52.5365 42.8525 52.6465C42.8638 52.7577 42.8863 52.8652 42.9225 52.9702C42.9575 53.0752 43.0038 53.1752 43.06 53.2702C43.1175 53.3652 43.185 53.4527 43.2613 53.5327C43.3388 53.6127 43.4238 53.684 43.5163 53.7452C43.6088 53.8065 43.7063 53.8565 43.81 53.8965C43.9138 53.9365 44.0213 53.964 44.13 53.979C44.24 53.9952 44.3513 53.999 44.4613 53.9902C45.2938 54.0302 46.1375 54.1127 46.9488 54.184L47.9363 54.274C48.0763 54.264 48.2138 54.279 48.3488 54.319C48.4838 54.359 48.6075 54.4215 48.72 54.5065C48.8325 54.5915 48.9263 54.694 49.0013 54.8127C49.0763 54.9327 49.1275 55.0615 49.155 55.199C49.3938 56.0715 49.7425 56.8965 50.2025 57.6752C50.2563 57.744 50.3038 57.8177 50.3425 57.8952C50.3825 57.9727 50.4138 58.054 50.4363 58.139C50.4588 58.2227 50.4738 58.309 50.4788 58.3965C50.4838 58.4827 50.48 58.5702 50.4675 58.6565C50.455 58.7427 50.435 58.8277 50.405 58.909C50.375 58.9915 50.3375 59.0702 50.2925 59.144C50.2463 59.219 50.1938 59.2877 50.1338 59.3515C50.0738 59.4152 50.0088 59.4727 49.9375 59.5227C49.4175 60.0427 48.9288 60.5902 48.4738 61.1677C48.22 61.4715 47.9775 61.7765 47.7125 62.0702C47.635 62.1427 47.5663 62.2227 47.5063 62.309C47.445 62.3965 47.395 62.489 47.355 62.5865C47.3138 62.684 47.2838 62.7852 47.265 62.889C47.2463 62.9927 47.2388 63.0977 47.2413 63.204C47.245 63.309 47.26 63.4127 47.285 63.5165C47.3113 63.619 47.3463 63.7177 47.3938 63.8115C47.44 63.9065 47.4963 63.9965 47.5625 64.079C47.6275 64.1615 47.7013 64.2365 47.7838 64.304C49.0338 65.5915 50.3238 66.8715 51.6538 68.1715C51.72 68.2477 51.7925 68.3152 51.8725 68.3765C51.9538 68.4377 52.0388 68.489 52.13 68.5315C52.2213 68.574 52.3163 68.6077 52.4138 68.6302C52.5113 68.6527 52.6113 68.6652 52.7113 68.6677C52.8125 68.669 52.9125 68.6602 53.0113 68.6415C53.11 68.6215 53.2063 68.5927 53.2988 68.554C53.3913 68.514 53.4788 68.4652 53.5613 68.4077C53.6438 68.3502 53.7188 68.284 53.7875 68.2102L57.0175 65.5115C57.3825 65.6627 57.7275 65.8165 58.085 65.9577C59.1313 66.3952 60.8788 66.8115 61.8525 67.2677C61.8788 67.2815 61.9038 67.2977 61.925 67.319V71.4115C61.9425 71.4615 61.9663 71.5077 61.995 71.5527C62.6563 72.7202 64.3013 72.984 65.2963 73.0552C65.535 73.0465 65.7613 72.9877 65.975 72.8802C66.1875 72.7715 66.3688 72.624 66.5163 72.4352C67.3538 72.609 68.1938 72.6277 69.0375 72.489C69.8825 72.3515 70.6738 72.0665 71.4113 71.634C72.2363 71.1627 73.1 70.7777 74.0025 70.4765C78.045 69.1677 80.0363 66.914 80.2513 63.4015C80.26 63.2402 80.3825 62.9452 80.89 62.499C82.4763 61.0877 84.1913 59.139 83.44 56.5102C83.2475 55.7652 83.2038 55.0115 83.3075 54.249C83.4113 53.4865 83.6563 52.7715 84.04 52.1052C84.155 51.8565 84.25 51.6002 84.3263 51.3377C84.4025 51.074 84.46 50.8065 84.4963 50.5352C84.5325 50.264 84.55 49.9915 84.545 49.7177C84.5413 49.444 84.5175 49.1715 84.4738 48.9015C84.4288 48.6315 84.365 48.3652 84.2813 48.104C84.1975 47.844 84.095 47.5902 83.9738 47.3452C83.8525 47.099 83.7138 46.864 83.5575 46.639C83.4 46.414 83.2288 46.2015 83.04 46.0027L83.045 46.0015ZM61.92 57.0865C59.6038 55.5027 57.135 52.7515 57.205 49.5952C57.2663 46.5502 59.5313 43.839 61.92 42.2565V57.0865ZM58.3738 62.8615C56.87 62.0602 56.595 62.029 55.325 63.1865C54.7263 63.7352 54.1063 64.2527 53.5588 64.7202C53.365 64.8827 53.1713 65.0452 53 65.1965L50.5913 63.0965L51.3538 62.2127C51.9938 61.4615 52.5925 60.7515 53.2325 60.0615C53.3738 59.9127 53.4875 59.7452 53.5713 59.559C53.6563 59.3727 53.7075 59.1777 53.7263 58.974C53.745 58.7702 53.7288 58.569 53.6788 58.3715C53.6288 58.1727 53.5488 57.9877 53.4363 57.8165C52.7763 56.3352 52.1463 54.7615 51.5275 53.0052C51.4838 52.814 51.4113 52.634 51.3088 52.4665C51.205 52.299 51.0788 52.1527 50.9263 52.0277C50.775 51.9027 50.6063 51.8052 50.4225 51.7365C50.2375 51.6677 50.0475 51.6302 49.8513 51.6252C48.55 51.5552 47.465 51.4727 46.3763 51.3315C46.1125 51.2915 45.7163 51.0052 45.7063 50.8852C45.6538 50.189 45.6375 49.4915 45.6563 48.794C45.6663 48.5702 45.6663 48.3477 45.6663 48.124L46.9163 48.0027C47.9413 47.9002 48.9163 47.799 49.8813 47.7377C50.0775 47.7302 50.2663 47.6915 50.4488 47.6215C50.6313 47.5502 50.7975 47.4527 50.9475 47.3265C51.0975 47.2002 51.2225 47.054 51.3238 46.8865C51.425 46.719 51.4963 46.539 51.5375 46.3477C52.1575 44.5815 52.7675 43.039 53.4163 41.6377C53.5238 41.464 53.6013 41.2777 53.6475 41.079C53.6938 40.8802 53.7075 40.679 53.6888 40.4752C53.67 40.2715 53.6188 40.0765 53.535 39.8902C53.4525 39.704 53.3413 39.5352 53.2038 39.384C52.5525 38.654 51.9438 37.9027 51.3438 37.1702C51.11 36.8977 50.8875 36.6127 50.6638 36.349L52.9088 34.1065C53.1725 34.329 53.4375 34.5427 53.7013 34.7652C54.4025 35.334 55.1138 35.9327 55.805 36.5415C55.96 36.6902 56.1363 36.809 56.3325 36.8952C56.53 36.9827 56.735 37.0327 56.95 37.0465C57.165 37.0602 57.3763 37.0377 57.5825 36.9765C57.7888 36.9165 57.9788 36.8227 58.1513 36.694C59.1363 36.1765 60.8125 35.709 61.9213 35.284V39.039C57.8575 40.959 54.25 45.324 54.4025 50.0127C54.565 54.9465 58.3563 58.7627 61.9213 60.3965V64.204C60.7113 63.8277 59.5288 63.3802 58.3738 62.8615ZM80.5713 52.6002C79.545 53.7165 76.4875 54.0615 75.4613 53.179C75.3 53.0427 75.1775 52.8765 75.0963 52.6815C73.9675 49.5252 71.2363 48.7115 68.9788 48.3677C68.7438 48.309 68.5063 48.299 68.2663 48.3377C68.0263 48.3765 67.8038 48.4602 67.5975 48.5902C67.4538 48.7102 67.34 48.854 67.2563 49.0215C67.1738 49.1902 67.1275 49.3677 67.12 49.5552C66.9888 50.7627 67.9225 51.0477 68.6438 51.159C70.3413 51.4127 71.3975 51.889 71.9663 52.6815C72.27 53.2227 72.4563 53.8015 72.525 54.4177C72.5938 55.034 72.54 55.6402 72.3625 56.234C72.3625 56.244 72.3538 56.254 72.3538 56.264C72.3388 56.2927 72.3313 56.324 72.3325 56.3565C72.3088 56.4477 72.2938 56.5415 72.2888 56.6365C72.2838 56.7315 72.2875 56.8265 72.3013 56.9202C72.3138 57.014 72.3363 57.1065 72.3675 57.1952C72.4 57.2852 72.44 57.3715 72.4888 57.4527C72.5375 57.5352 72.5925 57.6115 72.6563 57.6815C72.72 57.7527 72.7913 57.8165 72.8675 57.8727C72.9438 57.929 73.025 57.9777 73.11 58.019C73.1963 58.059 73.2863 58.0915 73.3788 58.114C73.4688 58.1465 73.5625 58.169 73.6588 58.1815C73.7538 58.194 73.85 58.1965 73.9463 58.1877C74.0425 58.179 74.1363 58.1615 74.2288 58.1327C74.3213 58.104 74.4088 58.0652 74.4938 58.0177C74.5775 57.9702 74.655 57.914 74.7275 57.8502C74.7988 57.7852 74.8625 57.714 74.9188 57.6352C74.9763 57.5577 75.0238 57.474 75.0613 57.3852C75.1 57.2965 75.1288 57.2052 75.1475 57.1102C75.2063 56.9077 75.2775 56.7127 75.34 56.5202L75.4013 56.3377C75.6438 56.359 75.8888 56.389 76.1225 56.4102C76.7125 56.479 77.305 56.5102 77.9 56.5015C78.5188 56.4652 79.1313 56.3865 79.7388 56.2665C79.9613 56.2277 80.1963 56.1952 80.43 56.1565C80.5025 56.3065 80.5625 56.4615 80.6075 56.6227C80.6538 56.7827 80.685 56.9465 80.7013 57.1127C80.7188 57.279 80.7213 57.4452 80.7088 57.6127C80.6963 57.779 80.6688 57.9427 80.6275 58.1052C80.585 58.2665 80.53 58.424 80.4613 58.5765C80.3913 58.7277 80.31 58.8727 80.215 59.0102C80.12 59.149 80.0138 59.2765 79.8963 59.3952C79.7788 59.514 79.6513 59.6227 79.515 59.719C79.4863 59.6477 79.4538 59.5752 79.425 59.494C79.3238 59.2315 79.2113 58.9677 79.0988 58.714C79.02 58.4902 78.9 58.2902 78.7375 58.1177C78.575 57.944 78.3838 57.8115 78.165 57.7177C77.9813 57.6615 77.7938 57.644 77.6038 57.6652C77.4125 57.6865 77.2338 57.7452 77.0675 57.8402C76.9738 57.8802 76.885 57.9302 76.8025 57.989C76.7213 58.049 76.6463 58.1165 76.5788 58.1927C76.5113 58.269 76.4525 58.3515 76.4038 58.4402C76.355 58.5302 76.3163 58.6227 76.2888 58.7202C76.26 58.8177 76.2425 58.9177 76.2363 59.019C76.2313 59.1202 76.2363 59.2215 76.2525 59.3215C76.2688 59.4215 76.2963 59.519 76.3338 59.614C76.3725 59.7077 76.42 59.7965 76.4775 59.8802L76.4975 59.9215C76.7463 60.4227 76.9625 60.9377 77.1488 61.4652C77.9013 63.6977 77.1288 66.0015 75.3813 66.7427C75.2488 66.5715 75.1275 66.389 75.005 66.2052C74.7738 65.7552 74.4388 65.4077 73.9988 65.159C73.85 65.094 73.6938 65.0602 73.5313 65.0577C73.39 65.0577 73.2538 65.0877 73.125 65.149C72.8938 65.3015 72.6988 65.4927 72.5413 65.7202C72.3838 65.949 72.2738 66.1977 72.2113 66.4677C72.185 66.5377 72.155 66.6052 72.12 66.6715C72.0975 66.7015 72.08 66.7352 72.07 66.7727C71.79 67.419 71.395 67.9865 70.885 68.4752C70.3763 68.9627 69.7913 69.3327 69.1325 69.584C68.4625 69.774 67.7825 69.8252 67.0913 69.739C66.4 69.6527 65.7525 69.4352 65.15 69.0865C64.8713 68.919 64.6988 68.6752 64.6325 68.3565C64.5913 67.3415 64.5913 66.3252 64.6013 65.2602C64.6013 64.934 64.6125 64.6002 64.6125 64.2652C64.785 64.2952 64.9488 64.3252 65.11 64.3665C65.5463 64.4465 65.9538 64.529 66.37 64.5702C68.7675 64.814 70.4538 64.104 71.55 62.3877C71.6163 62.3102 71.6738 62.2265 71.7213 62.1377C71.7675 62.0477 71.805 61.954 71.8325 61.8552C71.8588 61.7577 71.875 61.6577 71.8788 61.5565C71.8838 61.4552 71.8775 61.3552 71.86 61.2552C71.8425 61.1552 71.815 61.0577 71.7763 60.964C71.7363 60.8702 71.6888 60.7827 71.63 60.699C71.5713 60.6165 71.505 60.5402 71.43 60.4727C71.355 60.404 71.2725 60.3452 71.185 60.294C71.0438 60.1802 70.885 60.1002 70.71 60.0527C70.5363 60.0052 70.3588 59.994 70.1788 60.0202C69.9788 60.0727 69.7963 60.1627 69.6338 60.2915C69.4713 60.4215 69.3425 60.5765 69.245 60.7602C69.1075 60.9715 68.94 61.1577 68.7425 61.3152C68.545 61.474 68.3288 61.5977 68.0925 61.6877C67.855 61.7765 67.6113 61.8277 67.3575 61.839C67.105 61.8515 66.8575 61.8227 66.6138 61.7565C66.13 61.6702 65.6588 61.539 65.2013 61.3627L64.6825 61.1802V57.7602C65.0475 57.689 65.4038 57.6277 65.75 57.5665C66.6325 57.404 67.4763 57.2527 68.31 57.0377C68.5175 56.9965 68.7088 56.9152 68.8825 56.794C69.055 56.6715 69.1963 56.519 69.305 56.3377C69.3825 56.174 69.4225 56.0027 69.4263 55.8227C69.43 55.6415 69.3963 55.469 69.3263 55.3027C69.3 55.199 69.2638 55.1002 69.2163 55.0052C69.1675 54.9102 69.11 54.8227 69.0425 54.7402C68.9738 54.659 68.8975 54.5852 68.8138 54.5215C68.7288 54.4565 68.6388 54.4027 68.5413 54.359C68.445 54.314 68.345 54.2815 68.24 54.2602C68.1363 54.239 68.0313 54.2302 67.925 54.2327C67.8188 54.2352 67.7138 54.2502 67.61 54.2765C67.5075 54.3027 67.4088 54.3402 67.3138 54.389C66.7563 54.5502 66.1863 54.6477 65.6063 54.6827L65.4238 54.694C65.1938 54.7452 64.9838 54.7002 64.7938 54.5602C64.6125 54.329 64.545 54.069 64.59 53.779C64.6313 51.2515 64.6313 48.7852 64.59 46.4515C64.5525 46.1365 64.6413 45.8615 64.855 45.6277C65.0288 45.4877 65.2263 45.4415 65.445 45.4865C66.5338 45.6365 67.5925 45.9002 68.6238 46.279C69.4063 46.5615 70.1988 46.694 70.7063 45.8115C70.8063 45.6552 70.8713 45.4852 70.9013 45.3015C70.9313 45.1177 70.9238 44.9365 70.8788 44.7565C70.795 44.5302 70.67 44.3302 70.5038 44.1565C70.3388 43.9815 70.145 43.8465 69.9238 43.7515C69.1413 43.279 68.3013 42.9527 67.405 42.7727C66.5088 42.594 65.6075 42.5715 64.7038 42.7052V40.0152C64.9263 40.0352 65.1488 40.0552 65.3625 40.0752C65.8988 40.149 66.4375 40.184 66.9788 40.1777C67.2663 40.194 67.5488 40.1677 67.8263 40.0952C68.105 40.024 68.365 39.9102 68.6075 39.7565C68.85 39.6027 69.0625 39.4152 69.2463 39.194C69.43 38.9727 69.5738 38.729 69.68 38.4615C69.76 38.1902 69.7713 37.9165 69.7138 37.6402C69.6563 37.364 69.5375 37.1165 69.3563 36.899C69.0188 36.669 68.6463 36.5677 68.2388 36.5952C68.0575 36.5815 67.8975 36.6352 67.7613 36.7565C66.9175 37.6802 66.115 37.4165 65.17 37.1027C64.9875 37.0502 64.8038 36.9902 64.6213 36.9302C64.6213 36.4527 64.6113 35.9652 64.6113 35.4877C64.6013 34.2915 64.59 33.164 64.6313 32.0065C64.64 31.8627 64.66 31.7215 64.6938 31.5815C64.7263 31.4415 64.7713 31.3052 64.8275 31.1727C64.885 31.0402 64.9525 30.9127 65.03 30.7927C65.1088 30.6715 65.1963 30.5577 65.295 30.4527C65.3925 30.3465 65.4988 30.2502 65.6138 30.1627C65.7275 30.0752 65.8488 29.999 65.9775 29.9327C66.105 29.8665 66.2375 29.8102 66.375 29.7677C66.5125 29.724 66.6525 29.6915 66.795 29.6727C67.0688 29.619 67.3438 29.6115 67.62 29.6502C67.895 29.6877 68.1575 29.7715 68.405 29.8977C68.6538 30.0252 68.8738 30.1902 69.0663 30.3915C69.2588 30.5927 69.4138 30.8202 69.5288 31.0727C69.7175 31.6802 69.7788 32.299 69.7113 32.9302C69.67 33.6215 69.7525 34.3627 70.625 34.6477C70.7963 34.7102 70.9725 34.7377 71.1538 34.7327C71.3363 34.7277 71.51 34.6877 71.6763 34.6152C71.8438 34.5415 71.99 34.4402 72.1175 34.3115C72.245 34.1815 72.3438 34.0327 72.4125 33.864C72.5125 33.7277 72.6375 33.6215 72.7875 33.5427C72.9375 33.464 73.0975 33.4227 73.2663 33.419C73.4613 33.4327 73.6538 33.4627 73.8438 33.5115C74.0338 33.5602 74.2175 33.6265 74.395 33.709C74.5725 33.7915 74.7413 33.889 74.9 34.0027C75.06 34.1165 75.2075 34.244 75.3438 34.384C75.4788 34.5252 75.6013 34.6777 75.7088 34.8402C75.8163 35.004 75.9088 35.1765 75.985 35.3565C76.0613 35.5365 76.12 35.7227 76.1613 35.914C76.2025 36.1052 76.2275 36.2977 76.2325 36.494C76.245 36.709 76.235 36.924 76.205 37.139C76.1738 37.3527 76.1213 37.5615 76.0488 37.7652C75.9763 37.969 75.8838 38.1627 75.7725 38.3477C75.6613 38.534 75.5313 38.7052 75.385 38.8652C75.2388 39.024 75.0788 39.1677 74.9038 39.2952C74.7288 39.4227 74.5425 39.5315 74.3463 39.6215C74.15 39.7115 73.9463 39.7815 73.735 39.8315C73.525 39.8802 73.3113 39.909 73.095 39.9152C72.0175 40.0565 71.53 40.544 71.5913 41.4077C71.595 41.5952 71.635 41.7752 71.7125 41.9465C71.79 42.1177 71.8988 42.2652 72.0388 42.3915C72.2338 42.5327 72.4475 42.6315 72.6813 42.6877C72.9163 42.744 73.1513 42.754 73.39 42.7165C73.8075 42.6977 74.2188 42.6327 74.6238 42.5227C75.0275 42.4127 75.415 42.259 75.785 42.0615C76.155 41.8652 76.4988 41.6302 76.8163 41.3577C77.1338 41.084 77.4163 40.779 77.6663 40.4427C78.1838 39.7327 78.5813 39.8027 79.22 40.219C79.3575 40.3052 79.4875 40.4015 79.6088 40.5102C79.73 40.619 79.8413 40.7377 79.9413 40.8652C80.0413 40.994 80.13 41.129 80.2063 41.2727C80.2825 41.4165 80.3463 41.5652 80.3963 41.7202C80.4463 41.8752 80.4838 42.0327 80.5063 42.194C80.5288 42.3552 80.5363 42.5165 80.5313 42.679C80.525 42.8415 80.505 43.0027 80.4713 43.1615C80.4375 43.3202 80.3888 43.4752 80.3275 43.6265C80.2175 43.939 80.0663 44.2315 79.875 44.5027C79.6825 44.7727 79.4575 45.0127 79.2 45.2215C78.9413 45.4302 78.66 45.6002 78.355 45.7315C78.05 45.8627 77.7325 45.949 77.4038 45.9927C77.14 45.9965 76.8888 46.0527 76.6488 46.1602C76.4088 46.2677 76.1988 46.4177 76.02 46.6115C75.9175 46.7602 75.8475 46.924 75.8125 47.1027C75.7775 47.2802 75.7788 47.459 75.8175 47.6352C75.8338 47.834 75.8913 48.0202 75.9913 48.1927C76.0913 48.3652 76.2225 48.5077 76.3875 48.6215C76.61 48.7465 76.8488 48.8227 77.1038 48.8465C77.3575 48.8715 77.6063 48.844 77.8488 48.764C78.5513 48.5665 79.2388 48.3302 79.9125 48.0527C80.1863 47.9402 80.47 47.829 80.7563 47.7277C81.025 47.9327 81.24 48.184 81.4013 48.4815C81.5613 48.7777 81.655 49.0952 81.6788 49.4327C81.7163 50.014 81.6375 50.579 81.4463 51.129C81.2538 51.6777 80.9613 52.169 80.5713 52.6002Z" fill="url(#paint0_linear_127_764)"/>
<path d="M92.7288 63.004L92.3763 63.8665C90.995 67.249 89.5725 70.754 88.2525 74.229C86.2088 79.6265 85.5738 84.1265 86.2563 88.394C86.49 89.6777 86.8038 90.9402 87.1975 92.184C87.3188 92.599 87.44 93.0102 87.5563 93.4252C87.5975 93.5115 87.6288 93.6015 87.6513 93.694C87.6738 93.7877 87.6863 93.8827 87.6888 93.9777C87.6913 94.074 87.6838 94.169 87.6663 94.2627C87.6488 94.3577 87.6225 94.449 87.585 94.5377C87.5488 94.6265 87.5038 94.7102 87.4488 94.789C87.395 94.869 87.3325 94.9415 87.2638 95.0077C87.1938 95.074 87.1188 95.1315 87.0375 95.1827C86.955 95.2327 86.87 95.274 86.7788 95.3065C86.6438 95.359 86.5038 95.394 86.3588 95.4077C86.1238 95.5427 85.8725 95.609 85.6013 95.6052H54.7138C54.2375 95.7277 53.7588 95.739 53.2763 95.639C52.795 95.539 52.36 95.3377 51.9713 95.0365C51.2913 94.1965 50.8138 93.2527 50.5388 92.209C50.4588 92.0052 50.3975 91.8327 50.3575 91.7215C48.7138 92.3315 47.0213 92.729 45.2775 92.9152C43.5338 93.1015 41.795 93.069 40.06 92.8202C38.1538 92.6777 36.36 92.1577 34.675 91.2565C34.3063 91.0015 33.9675 90.7102 33.6588 90.3852C33.3488 90.0615 33.0763 89.7077 32.8388 89.3277C32.6013 88.9477 32.405 88.5465 32.25 88.1252C32.095 87.7052 31.9838 87.2727 31.9175 86.8302C31.5625 84.9377 31.8363 83.0327 31.6713 81.1302C31.5663 80.124 31.3275 79.1502 30.955 78.2102C30.5813 77.2702 30.0875 76.3977 29.4725 75.5927C29.3675 75.4502 29.29 75.294 29.2413 75.1227L29.0638 74.8927C28.9238 74.6552 28.855 74.399 28.855 74.124V72.9502C28.8538 72.874 28.8613 72.799 28.875 72.724C28.5988 72.254 28.4663 71.7465 28.4775 71.2015C28.5 70.884 28.4775 70.5702 28.4088 70.2602C28.34 69.949 28.2288 69.6552 28.0738 69.3777C27.9188 69.1002 27.7275 68.8502 27.4988 68.6277C27.2713 68.4065 27.0163 68.2215 26.7338 68.0752C26.4838 67.944 26.2488 67.7915 26.0288 67.614C25.8088 67.4377 25.6088 67.2415 25.4275 67.024C25.2475 66.8077 25.09 66.5765 24.955 66.3277C24.82 66.0802 24.7113 65.8215 24.6275 65.5527C24.545 65.2827 24.4888 65.0077 24.46 64.7277C24.4313 64.4477 24.43 64.1665 24.4575 63.8865C24.4838 63.6052 24.5388 63.3302 24.62 63.0602C24.7013 62.7902 24.8088 62.5315 24.9413 62.2827C25.4988 61.0727 26.205 59.9565 27.0575 58.9327C27.9063 57.929 28.6075 56.8302 29.1588 55.6365C29.7113 54.4427 30.0938 53.1977 30.3088 51.9015C30.5625 50.2765 30.6688 48.599 30.7725 46.9765C30.8425 45.8602 30.915 44.7115 31.035 43.584C32.1125 33.4715 37.24 26.359 46.2738 22.444C49.0063 21.314 51.8163 20.429 54.7025 19.7877C57.5888 19.1477 60.51 18.7602 63.4638 18.629C65.245 18.6115 67.015 18.744 68.775 19.0252C70.5338 19.3077 72.2563 19.7352 73.9438 20.3077C75.63 20.8815 77.2563 21.5915 78.8225 22.4402C80.3888 23.2877 81.8725 24.2615 83.2738 25.3602C84.6413 26.4365 85.9063 27.6215 87.07 28.914C88.2325 30.2077 89.2775 31.5902 90.2038 33.0615C91.13 34.534 91.9238 36.074 92.585 37.6827C93.2475 39.2902 93.7663 40.944 94.145 42.6402C94.5663 44.3215 94.8538 46.0252 95.0063 47.7515C95.1588 49.4777 95.175 51.2052 95.055 52.934C94.935 54.664 94.68 56.3727 94.29 58.0615C93.8988 59.749 93.3788 61.3965 92.7288 63.004ZM91.605 44.174C89.175 32.1502 79.9775 23.3602 68.1675 21.7802C66.1563 21.5315 64.1388 21.4415 62.1138 21.5115C60.0888 21.5827 58.0813 21.8115 56.0925 22.2002C54.1038 22.589 52.1588 23.1327 50.2563 23.829C48.3538 24.5265 46.5188 25.369 44.75 26.3577C44.1138 26.6852 43.4988 27.0477 42.9025 27.444C42.3063 27.8402 41.7338 28.269 41.1863 28.7277C40.6375 29.1877 40.1163 29.6765 39.6213 30.1927C39.1263 30.7102 38.6625 31.2527 38.2275 31.8215C37.7925 32.389 37.3913 32.9802 37.0213 33.5927C36.6525 34.2052 36.3175 34.8365 36.0175 35.4852C35.7188 36.1352 35.455 36.799 35.2288 37.4777C35.0038 38.1565 34.815 38.8452 34.665 39.5452C34.045 42.2602 33.7063 45.0102 33.6488 47.794C33.6438 49.004 33.5375 50.204 33.33 51.3952C33.1225 52.5877 32.8163 53.754 32.4138 54.894C32.01 56.034 31.5138 57.1327 30.9263 58.1902C30.3388 59.2477 29.6663 60.2477 28.91 61.1927C28.44 61.7515 28.0263 62.349 27.67 62.9865C26.97 64.3115 27.1725 65.0627 28.4463 65.8502C28.8763 66.0852 29.2663 66.3715 29.6175 66.7127C29.9688 67.0527 30.2675 67.434 30.515 67.8552C30.7625 68.2777 30.9475 68.7252 31.0725 69.1977C31.1975 69.6702 31.2575 70.1515 31.25 70.6402C31.2188 70.8765 31.2763 71.089 31.4225 71.2777C31.6213 71.424 31.8425 71.4777 32.085 71.4402C33.5225 71.4115 35.0113 71.4127 36.515 71.4402C36.735 71.4302 36.95 71.464 37.1563 71.5402C37.3638 71.6165 37.5475 71.7315 37.7088 71.8827C37.8338 72.024 37.9263 72.1852 37.9838 72.3652C38.0425 72.5452 38.0625 72.729 38.0438 72.9177C38.0088 73.7677 37.46 74.2377 36.4963 74.2377C36.0338 74.2377 35.57 74.239 35.1063 74.244C34.1588 74.2502 33.1863 74.2502 32.22 74.2352C32.6713 74.9065 33.0663 75.609 33.4038 76.3427C33.7413 77.0777 34.0188 77.834 34.235 78.6127C34.45 79.3915 34.6025 80.184 34.69 80.9865C34.7788 81.7902 34.8013 82.5952 34.76 83.4027C34.7463 84.9077 34.6575 86.6515 35.5588 87.949C36.4738 89.2677 38.505 89.5015 39.9725 89.7502C46.1913 90.8027 53.1913 88.8052 55.965 82.7052C56.7788 80.9227 59.4038 82.469 58.5963 84.2415C57.9988 85.5477 57.2163 86.7327 56.2513 87.7965C55.2863 88.8602 54.1825 89.754 52.94 90.4765C53.285 91.209 53.5875 91.924 53.8425 92.5627H84.2638C83.8638 91.2152 83.5725 89.8452 83.39 88.4515C83.2075 87.0577 83.1363 85.6577 83.175 84.2527C83.215 82.8477 83.365 81.4552 83.625 80.074C83.8863 78.6927 84.2538 77.3402 84.7288 76.0177C86.23 71.6265 87.96 67.2327 89.6325 62.9852L90.2775 61.3465C90.8088 59.9865 91.2363 58.5965 91.5613 57.174C91.8863 55.7515 92.105 54.3127 92.2175 52.859C92.33 51.404 92.335 49.949 92.2325 48.494C92.13 47.039 91.92 45.599 91.605 44.174ZM83.045 46.0015C82.965 45.9302 82.8975 45.8477 82.845 45.754C82.7925 45.659 82.7575 45.559 82.74 45.4527C82.7225 45.3465 82.7225 45.2402 82.7425 45.134C82.7613 45.0277 82.7975 44.9277 82.8513 44.834C82.93 44.6627 82.9988 44.4877 83.0588 44.309C83.1175 44.1302 83.1688 43.949 83.21 43.7652C83.2513 43.5815 83.2838 43.3965 83.3063 43.209C83.3288 43.0227 83.3413 42.8352 83.3438 42.6465C83.3475 42.4577 83.3413 42.2702 83.325 42.0827C83.3088 41.8952 83.2838 41.709 83.2488 41.524C83.2138 41.339 83.1688 41.1552 83.115 40.9752C83.0613 40.7952 82.9988 40.6177 82.9263 40.4427C82.855 40.269 82.7738 40.099 82.685 39.9327C82.595 39.7677 82.4975 39.6065 82.3925 39.4502C82.2863 39.2952 82.1725 39.1452 82.0513 39.0002C81.93 38.8565 81.8025 38.7177 81.6675 38.5877C81.5325 38.4565 81.39 38.3315 81.2425 38.2152C81.095 38.099 80.9413 37.989 80.7825 37.889C80.6225 37.7877 80.4588 37.6952 80.29 37.6102C80.1225 37.5265 79.95 37.4502 79.7738 37.384C79.6588 37.354 79.5538 37.3065 79.4563 37.2402C79.3588 37.174 79.2763 37.0927 79.2075 36.9977C79.1388 36.9015 79.0888 36.7977 79.0563 36.684C79.025 36.5715 79.0125 36.4552 79.0213 36.3377C79.005 35.9615 78.9538 35.5902 78.8688 35.224C78.7825 34.8565 78.6638 34.5015 78.5113 34.1565C78.3588 33.8115 78.1763 33.484 77.9625 33.174C77.7488 32.864 77.5088 32.5752 77.2413 32.3102C76.975 32.044 76.685 31.8052 76.3725 31.594C76.0613 31.3815 75.7325 31.2015 75.3863 31.0502C75.0413 30.9002 74.6838 30.784 74.3163 30.7002C73.9488 30.6165 73.5775 30.5665 73.2 30.5527C72.8375 30.5465 72.5263 30.4177 72.2663 30.1652C70.8038 27.8215 69.2175 26.7252 67.2875 26.8065C66.7613 26.7327 66.24 26.7602 65.7238 26.8877C65.55 26.949 65.3575 27.0302 65.3575 27.0302C65.1963 27.1002 65.0338 27.1927 64.78 27.3352C64.5975 27.4377 64.4213 27.549 64.2513 27.6702C64.1588 27.7315 64.0675 27.7927 63.9775 27.8627L63.9563 27.8727L63.905 27.924C63.5875 28.189 63.2938 28.4765 63.0213 28.7865C63.0113 28.7965 62.91 28.9177 62.8888 28.939C62.8713 28.969 62.8513 28.9952 62.8275 29.0202C62.3675 29.7515 62.0663 30.5427 61.925 31.3952V32.004C61.8525 32.064 61.775 32.114 61.6913 32.1552C60.3763 32.7165 59.035 33.2065 57.6688 33.6277C57.3013 33.7365 56.9525 33.6965 56.6213 33.5065C55.83 32.9265 55.0575 32.2677 54.3263 31.629L53.8475 31.2227C53.7738 31.139 53.6925 31.0652 53.6025 31.0015C53.5125 30.9365 53.4163 30.8827 53.3138 30.839C53.2125 30.7952 53.1063 30.764 52.9975 30.744C52.8888 30.724 52.7788 30.7165 52.6675 30.7202C52.5575 30.7252 52.4488 30.7415 52.3413 30.7702C52.2338 30.7977 52.1313 30.8377 52.0338 30.889C51.935 30.9402 51.8438 31.0027 51.7588 31.074C51.675 31.1452 51.5988 31.2252 51.5325 31.314C50.3525 32.5115 49.1338 33.729 47.965 34.8965L47.8338 35.0177C47.75 35.0827 47.675 35.1565 47.6088 35.239C47.5413 35.3202 47.4838 35.4077 47.4363 35.5027C47.3875 35.5965 47.35 35.6952 47.3238 35.7965C47.2975 35.899 47.2813 36.0027 47.2775 36.109C47.2725 36.214 47.28 36.319 47.2988 36.4227C47.3163 36.5265 47.3463 36.6277 47.3863 36.7252C47.4263 36.8227 47.4763 36.9152 47.5363 37.0027C47.5963 37.089 47.665 37.169 47.7425 37.2402L48.4125 38.0327C49.0125 38.724 49.6313 39.4427 50.17 40.1952C50.2688 40.374 50.3288 40.564 50.35 40.7665C50.3713 40.969 50.3513 41.1677 50.2913 41.3615C50.1225 41.8865 49.9263 42.4015 49.7038 42.9052C49.52 43.3515 49.3263 43.819 49.1738 44.2865C48.9713 44.884 48.7275 45.0777 48.1588 45.0977C47.315 45.119 46.4725 45.2002 45.65 45.2802C45.2438 45.3127 44.8463 45.3515 44.4413 45.3827C44.33 45.3765 44.22 45.384 44.1113 45.4027C44.0013 45.4215 43.895 45.4515 43.7925 45.494C43.69 45.5352 43.5925 45.5877 43.5013 45.6515C43.41 45.714 43.3275 45.7865 43.2513 45.8677C43.1763 45.949 43.11 46.0377 43.0538 46.1327C42.9988 46.229 42.9525 46.329 42.9188 46.434C42.885 46.5402 42.8625 46.6477 42.8513 46.7577C42.8413 46.869 42.8425 46.979 42.8563 47.089C42.8663 48.6315 42.8663 50.204 42.8563 51.7165V52.3165C42.8425 52.4265 42.8413 52.5365 42.8525 52.6465C42.8638 52.7577 42.8863 52.8652 42.9225 52.9702C42.9575 53.0752 43.0038 53.1752 43.06 53.2702C43.1175 53.3652 43.185 53.4527 43.2613 53.5327C43.3388 53.6127 43.4238 53.684 43.5163 53.7452C43.6088 53.8065 43.7063 53.8565 43.81 53.8965C43.9138 53.9365 44.0213 53.964 44.13 53.979C44.24 53.9952 44.3513 53.999 44.4613 53.9902C45.2938 54.0302 46.1375 54.1127 46.9488 54.184L47.9363 54.274C48.0763 54.264 48.2138 54.279 48.3488 54.319C48.4838 54.359 48.6075 54.4215 48.72 54.5065C48.8325 54.5915 48.9263 54.694 49.0013 54.8127C49.0763 54.9327 49.1275 55.0615 49.155 55.199C49.3938 56.0715 49.7425 56.8965 50.2025 57.6752C50.2563 57.744 50.3038 57.8177 50.3425 57.8952C50.3825 57.9727 50.4138 58.054 50.4363 58.139C50.4588 58.2227 50.4738 58.309 50.4788 58.3965C50.4838 58.4827 50.48 58.5702 50.4675 58.6565C50.455 58.7427 50.435 58.8277 50.405 58.909C50.375 58.9915 50.3375 59.0702 50.2925 59.144C50.2463 59.219 50.1938 59.2877 50.1338 59.3515C50.0738 59.4152 50.0088 59.4727 49.9375 59.5227C49.4175 60.0427 48.9288 60.5902 48.4738 61.1677C48.22 61.4715 47.9775 61.7765 47.7125 62.0702C47.635 62.1427 47.5663 62.2227 47.5063 62.309C47.445 62.3965 47.395 62.489 47.355 62.5865C47.3138 62.684 47.2838 62.7852 47.265 62.889C47.2463 62.9927 47.2388 63.0977 47.2413 63.204C47.245 63.309 47.26 63.4127 47.285 63.5165C47.3113 63.619 47.3463 63.7177 47.3938 63.8115C47.44 63.9065 47.4963 63.9965 47.5625 64.079C47.6275 64.1615 47.7013 64.2365 47.7838 64.304C49.0338 65.5915 50.3238 66.8715 51.6538 68.1715C51.72 68.2477 51.7925 68.3152 51.8725 68.3765C51.9538 68.4377 52.0388 68.489 52.13 68.5315C52.2213 68.574 52.3163 68.6077 52.4138 68.6302C52.5113 68.6527 52.6113 68.6652 52.7113 68.6677C52.8125 68.669 52.9125 68.6602 53.0113 68.6415C53.11 68.6215 53.2063 68.5927 53.2988 68.554C53.3913 68.514 53.4788 68.4652 53.5613 68.4077C53.6438 68.3502 53.7188 68.284 53.7875 68.2102L57.0175 65.5115C57.3825 65.6627 57.7275 65.8165 58.085 65.9577C59.1313 66.3952 60.8788 66.8115 61.8525 67.2677C61.8788 67.2815 61.9038 67.2977 61.925 67.319V71.4115C61.9425 71.4615 61.9663 71.5077 61.995 71.5527C62.6563 72.7202 64.3013 72.984 65.2963 73.0552C65.535 73.0465 65.7613 72.9877 65.975 72.8802C66.1875 72.7715 66.3688 72.624 66.5163 72.4352C67.3538 72.609 68.1938 72.6277 69.0375 72.489C69.8825 72.3515 70.6738 72.0665 71.4113 71.634C72.2363 71.1627 73.1 70.7777 74.0025 70.4765C78.045 69.1677 80.0363 66.914 80.2513 63.4015C80.26 63.2402 80.3825 62.9452 80.89 62.499C82.4763 61.0877 84.1913 59.139 83.44 56.5102C83.2475 55.7652 83.2038 55.0115 83.3075 54.249C83.4113 53.4865 83.6563 52.7715 84.04 52.1052C84.155 51.8565 84.25 51.6002 84.3263 51.3377C84.4025 51.074 84.46 50.8065 84.4963 50.5352C84.5325 50.264 84.55 49.9915 84.545 49.7177C84.5413 49.444 84.5175 49.1715 84.4738 48.9015C84.4288 48.6315 84.365 48.3652 84.2813 48.104C84.1975 47.844 84.095 47.5902 83.9738 47.3452C83.8525 47.099 83.7138 46.864 83.5575 46.639C83.4 46.414 83.2288 46.2015 83.04 46.0027L83.045 46.0015ZM61.92 57.0865C59.6038 55.5027 57.135 52.7515 57.205 49.5952C57.2663 46.5502 59.5313 43.839 61.92 42.2565V57.0865ZM58.3738 62.8615C56.87 62.0602 56.595 62.029 55.325 63.1865C54.7263 63.7352 54.1063 64.2527 53.5588 64.7202C53.365 64.8827 53.1713 65.0452 53 65.1965L50.5913 63.0965L51.3538 62.2127C51.9938 61.4615 52.5925 60.7515 53.2325 60.0615C53.3738 59.9127 53.4875 59.7452 53.5713 59.559C53.6563 59.3727 53.7075 59.1777 53.7263 58.974C53.745 58.7702 53.7288 58.569 53.6788 58.3715C53.6288 58.1727 53.5488 57.9877 53.4363 57.8165C52.7763 56.3352 52.1463 54.7615 51.5275 53.0052C51.4838 52.814 51.4113 52.634 51.3088 52.4665C51.205 52.299 51.0788 52.1527 50.9263 52.0277C50.775 51.9027 50.6063 51.8052 50.4225 51.7365C50.2375 51.6677 50.0475 51.6302 49.8513 51.6252C48.55 51.5552 47.465 51.4727 46.3763 51.3315C46.1125 51.2915 45.7163 51.0052 45.7063 50.8852C45.6538 50.189 45.6375 49.4915 45.6563 48.794C45.6663 48.5702 45.6663 48.3477 45.6663 48.124L46.9163 48.0027C47.9413 47.9002 48.9163 47.799 49.8813 47.7377C50.0775 47.7302 50.2663 47.6915 50.4488 47.6215C50.6313 47.5502 50.7975 47.4527 50.9475 47.3265C51.0975 47.2002 51.2225 47.054 51.3238 46.8865C51.425 46.719 51.4963 46.539 51.5375 46.3477C52.1575 44.5815 52.7675 43.039 53.4163 41.6377C53.5238 41.464 53.6013 41.2777 53.6475 41.079C53.6938 40.8802 53.7075 40.679 53.6888 40.4752C53.67 40.2715 53.6188 40.0765 53.535 39.8902C53.4525 39.704 53.3413 39.5352 53.2038 39.384C52.5525 38.654 51.9438 37.9027 51.3438 37.1702C51.11 36.8977 50.8875 36.6127 50.6638 36.349L52.9088 34.1065C53.1725 34.329 53.4375 34.5427 53.7013 34.7652C54.4025 35.334 55.1138 35.9327 55.805 36.5415C55.96 36.6902 56.1363 36.809 56.3325 36.8952C56.53 36.9827 56.735 37.0327 56.95 37.0465C57.165 37.0602 57.3763 37.0377 57.5825 36.9765C57.7888 36.9165 57.9788 36.8227 58.1513 36.694C59.1363 36.1765 60.8125 35.709 61.9213 35.284V39.039C57.8575 40.959 54.25 45.324 54.4025 50.0127C54.565 54.9465 58.3563 58.7627 61.9213 60.3965V64.204C60.7113 63.8277 59.5288 63.3802 58.3738 62.8615ZM80.5713 52.6002C79.545 53.7165 76.4875 54.0615 75.4613 53.179C75.3 53.0427 75.1775 52.8765 75.0963 52.6815C73.9675 49.5252 71.2363 48.7115 68.9788 48.3677C68.7438 48.309 68.5063 48.299 68.2663 48.3377C68.0263 48.3765 67.8038 48.4602 67.5975 48.5902C67.4538 48.7102 67.34 48.854 67.2563 49.0215C67.1738 49.1902 67.1275 49.3677 67.12 49.5552C66.9888 50.7627 67.9225 51.0477 68.6438 51.159C70.3413 51.4127 71.3975 51.889 71.9663 52.6815C72.27 53.2227 72.4563 53.8015 72.525 54.4177C72.5938 55.034 72.54 55.6402 72.3625 56.234C72.3625 56.244 72.3538 56.254 72.3538 56.264C72.3388 56.2927 72.3313 56.324 72.3325 56.3565C72.3088 56.4477 72.2938 56.5415 72.2888 56.6365C72.2838 56.7315 72.2875 56.8265 72.3013 56.9202C72.3138 57.014 72.3363 57.1065 72.3675 57.1952C72.4 57.2852 72.44 57.3715 72.4888 57.4527C72.5375 57.5352 72.5925 57.6115 72.6563 57.6815C72.72 57.7527 72.7913 57.8165 72.8675 57.8727C72.9438 57.929 73.025 57.9777 73.11 58.019C73.1963 58.059 73.2863 58.0915 73.3788 58.114C73.4688 58.1465 73.5625 58.169 73.6588 58.1815C73.7538 58.194 73.85 58.1965 73.9463 58.1877C74.0425 58.179 74.1363 58.1615 74.2288 58.1327C74.3213 58.104 74.4088 58.0652 74.4938 58.0177C74.5775 57.9702 74.655 57.914 74.7275 57.8502C74.7988 57.7852 74.8625 57.714 74.9188 57.6352C74.9763 57.5577 75.0238 57.474 75.0613 57.3852C75.1 57.2965 75.1288 57.2052 75.1475 57.1102C75.2063 56.9077 75.2775 56.7127 75.34 56.5202L75.4013 56.3377C75.6438 56.359 75.8888 56.389 76.1225 56.4102C76.7125 56.479 77.305 56.5102 77.9 56.5015C78.5188 56.4652 79.1313 56.3865 79.7388 56.2665C79.9613 56.2277 80.1963 56.1952 80.43 56.1565C80.5025 56.3065 80.5625 56.4615 80.6075 56.6227C80.6538 56.7827 80.685 56.9465 80.7013 57.1127C80.7188 57.279 80.7213 57.4452 80.7088 57.6127C80.6963 57.779 80.6688 57.9427 80.6275 58.1052C80.585 58.2665 80.53 58.424 80.4613 58.5765C80.3913 58.7277 80.31 58.8727 80.215 59.0102C80.12 59.149 80.0138 59.2765 79.8963 59.3952C79.7788 59.514 79.6513 59.6227 79.515 59.719C79.4863 59.6477 79.4538 59.5752 79.425 59.494C79.3238 59.2315 79.2113 58.9677 79.0988 58.714C79.02 58.4902 78.9 58.2902 78.7375 58.1177C78.575 57.944 78.3838 57.8115 78.165 57.7177C77.9813 57.6615 77.7938 57.644 77.6038 57.6652C77.4125 57.6865 77.2338 57.7452 77.0675 57.8402C76.9738 57.8802 76.885 57.9302 76.8025 57.989C76.7213 58.049 76.6463 58.1165 76.5788 58.1927C76.5113 58.269 76.4525 58.3515 76.4038 58.4402C76.355 58.5302 76.3163 58.6227 76.2888 58.7202C76.26 58.8177 76.2425 58.9177 76.2363 59.019C76.2313 59.1202 76.2363 59.2215 76.2525 59.3215C76.2688 59.4215 76.2963 59.519 76.3338 59.614C76.3725 59.7077 76.42 59.7965 76.4775 59.8802L76.4975 59.9215C76.7463 60.4227 76.9625 60.9377 77.1488 61.4652C77.9013 63.6977 77.1288 66.0015 75.3813 66.7427C75.2488 66.5715 75.1275 66.389 75.005 66.2052C74.7738 65.7552 74.4388 65.4077 73.9988 65.159C73.85 65.094 73.6938 65.0602 73.5313 65.0577C73.39 65.0577 73.2538 65.0877 73.125 65.149C72.8938 65.3015 72.6988 65.4927 72.5413 65.7202C72.3838 65.949 72.2738 66.1977 72.2113 66.4677C72.185 66.5377 72.155 66.6052 72.12 66.6715C72.0975 66.7015 72.08 66.7352 72.07 66.7727C71.79 67.419 71.395 67.9865 70.885 68.4752C70.3763 68.9627 69.7913 69.3327 69.1325 69.584C68.4625 69.774 67.7825 69.8252 67.0913 69.739C66.4 69.6527 65.7525 69.4352 65.15 69.0865C64.8713 68.919 64.6988 68.6752 64.6325 68.3565C64.5913 67.3415 64.5913 66.3252 64.6013 65.2602C64.6013 64.934 64.6125 64.6002 64.6125 64.2652C64.785 64.2952 64.9488 64.3252 65.11 64.3665C65.5463 64.4465 65.9538 64.529 66.37 64.5702C68.7675 64.814 70.4538 64.104 71.55 62.3877C71.6163 62.3102 71.6738 62.2265 71.7213 62.1377C71.7675 62.0477 71.805 61.954 71.8325 61.8552C71.8588 61.7577 71.875 61.6577 71.8788 61.5565C71.8838 61.4552 71.8775 61.3552 71.86 61.2552C71.8425 61.1552 71.815 61.0577 71.7763 60.964C71.7363 60.8702 71.6888 60.7827 71.63 60.699C71.5713 60.6165 71.505 60.5402 71.43 60.4727C71.355 60.404 71.2725 60.3452 71.185 60.294C71.0438 60.1802 70.885 60.1002 70.71 60.0527C70.5363 60.0052 70.3588 59.994 70.1788 60.0202C69.9788 60.0727 69.7963 60.1627 69.6338 60.2915C69.4713 60.4215 69.3425 60.5765 69.245 60.7602C69.1075 60.9715 68.94 61.1577 68.7425 61.3152C68.545 61.474 68.3288 61.5977 68.0925 61.6877C67.855 61.7765 67.6113 61.8277 67.3575 61.839C67.105 61.8515 66.8575 61.8227 66.6138 61.7565C66.13 61.6702 65.6588 61.539 65.2013 61.3627L64.6825 61.1802V57.7602C65.0475 57.689 65.4038 57.6277 65.75 57.5665C66.6325 57.404 67.4763 57.2527 68.31 57.0377C68.5175 56.9965 68.7088 56.9152 68.8825 56.794C69.055 56.6715 69.1963 56.519 69.305 56.3377C69.3825 56.174 69.4225 56.0027 69.4263 55.8227C69.43 55.6415 69.3963 55.469 69.3263 55.3027C69.3 55.199 69.2638 55.1002 69.2163 55.0052C69.1675 54.9102 69.11 54.8227 69.0425 54.7402C68.9738 54.659 68.8975 54.5852 68.8138 54.5215C68.7288 54.4565 68.6388 54.4027 68.5413 54.359C68.445 54.314 68.345 54.2815 68.24 54.2602C68.1363 54.239 68.0313 54.2302 67.925 54.2327C67.8188 54.2352 67.7138 54.2502 67.61 54.2765C67.5075 54.3027 67.4088 54.3402 67.3138 54.389C66.7563 54.5502 66.1863 54.6477 65.6063 54.6827L65.4238 54.694C65.1938 54.7452 64.9838 54.7002 64.7938 54.5602C64.6125 54.329 64.545 54.069 64.59 53.779C64.6313 51.2515 64.6313 48.7852 64.59 46.4515C64.5525 46.1365 64.6413 45.8615 64.855 45.6277C65.0288 45.4877 65.2263 45.4415 65.445 45.4865C66.5338 45.6365 67.5925 45.9002 68.6238 46.279C69.4063 46.5615 70.1988 46.694 70.7063 45.8115C70.8063 45.6552 70.8713 45.4852 70.9013 45.3015C70.9313 45.1177 70.9238 44.9365 70.8788 44.7565C70.795 44.5302 70.67 44.3302 70.5038 44.1565C70.3388 43.9815 70.145 43.8465 69.9238 43.7515C69.1413 43.279 68.3013 42.9527 67.405 42.7727C66.5088 42.594 65.6075 42.5715 64.7038 42.7052V40.0152C64.9263 40.0352 65.1488 40.0552 65.3625 40.0752C65.8988 40.149 66.4375 40.184 66.9788 40.1777C67.2663 40.194 67.5488 40.1677 67.8263 40.0952C68.105 40.024 68.365 39.9102 68.6075 39.7565C68.85 39.6027 69.0625 39.4152 69.2463 39.194C69.43 38.9727 69.5738 38.729 69.68 38.4615C69.76 38.1902 69.7713 37.9165 69.7138 37.6402C69.6563 37.364 69.5375 37.1165 69.3563 36.899C69.0188 36.669 68.6463 36.5677 68.2388 36.5952C68.0575 36.5815 67.8975 36.6352 67.7613 36.7565C66.9175 37.6802 66.115 37.4165 65.17 37.1027C64.9875 37.0502 64.8038 36.9902 64.6213 36.9302C64.6213 36.4527 64.6113 35.9652 64.6113 35.4877C64.6013 34.2915 64.59 33.164 64.6313 32.0065C64.64 31.8627 64.66 31.7215 64.6938 31.5815C64.7263 31.4415 64.7713 31.3052 64.8275 31.1727C64.885 31.0402 64.9525 30.9127 65.03 30.7927C65.1088 30.6715 65.1963 30.5577 65.295 30.4527C65.3925 30.3465 65.4988 30.2502 65.6138 30.1627C65.7275 30.0752 65.8488 29.999 65.9775 29.9327C66.105 29.8665 66.2375 29.8102 66.375 29.7677C66.5125 29.724 66.6525 29.6915 66.795 29.6727C67.0688 29.619 67.3438 29.6115 67.62 29.6502C67.895 29.6877 68.1575 29.7715 68.405 29.8977C68.6538 30.0252 68.8738 30.1902 69.0663 30.3915C69.2588 30.5927 69.4138 30.8202 69.5288 31.0727C69.7175 31.6802 69.7788 32.299 69.7113 32.9302C69.67 33.6215 69.7525 34.3627 70.625 34.6477C70.7963 34.7102 70.9725 34.7377 71.1538 34.7327C71.3363 34.7277 71.51 34.6877 71.6763 34.6152C71.8438 34.5415 71.99 34.4402 72.1175 34.3115C72.245 34.1815 72.3438 34.0327 72.4125 33.864C72.5125 33.7277 72.6375 33.6215 72.7875 33.5427C72.9375 33.464 73.0975 33.4227 73.2663 33.419C73.4613 33.4327 73.6538 33.4627 73.8438 33.5115C74.0338 33.5602 74.2175 33.6265 74.395 33.709C74.5725 33.7915 74.7413 33.889 74.9 34.0027C75.06 34.1165 75.2075 34.244 75.3438 34.384C75.4788 34.5252 75.6013 34.6777 75.7088 34.8402C75.8163 35.004 75.9088 35.1765 75.985 35.3565C76.0613 35.5365 76.12 35.7227 76.1613 35.914C76.2025 36.1052 76.2275 36.2977 76.2325 36.494C76.245 36.709 76.235 36.924 76.205 37.139C76.1738 37.3527 76.1213 37.5615 76.0488 37.7652C75.9763 37.969 75.8838 38.1627 75.7725 38.3477C75.6613 38.534 75.5313 38.7052 75.385 38.8652C75.2388 39.024 75.0788 39.1677 74.9038 39.2952C74.7288 39.4227 74.5425 39.5315 74.3463 39.6215C74.15 39.7115 73.9463 39.7815 73.735 39.8315C73.525 39.8802 73.3113 39.909 73.095 39.9152C72.0175 40.0565 71.53 40.544 71.5913 41.4077C71.595 41.5952 71.635 41.7752 71.7125 41.9465C71.79 42.1177 71.8988 42.2652 72.0388 42.3915C72.2338 42.5327 72.4475 42.6315 72.6813 42.6877C72.9163 42.744 73.1513 42.754 73.39 42.7165C73.8075 42.6977 74.2188 42.6327 74.6238 42.5227C75.0275 42.4127 75.415 42.259 75.785 42.0615C76.155 41.8652 76.4988 41.6302 76.8163 41.3577C77.1338 41.084 77.4163 40.779 77.6663 40.4427C78.1838 39.7327 78.5813 39.8027 79.22 40.219C79.3575 40.3052 79.4875 40.4015 79.6088 40.5102C79.73 40.619 79.8413 40.7377 79.9413 40.8652C80.0413 40.994 80.13 41.129 80.2063 41.2727C80.2825 41.4165 80.3463 41.5652 80.3963 41.7202C80.4463 41.8752 80.4838 42.0327 80.5063 42.194C80.5288 42.3552 80.5363 42.5165 80.5313 42.679C80.525 42.8415 80.505 43.0027 80.4713 43.1615C80.4375 43.3202 80.3888 43.4752 80.3275 43.6265C80.2175 43.939 80.0663 44.2315 79.875 44.5027C79.6825 44.7727 79.4575 45.0127 79.2 45.2215C78.9413 45.4302 78.66 45.6002 78.355 45.7315C78.05 45.8627 77.7325 45.949 77.4038 45.9927C77.14 45.9965 76.8888 46.0527 76.6488 46.1602C76.4088 46.2677 76.1988 46.4177 76.02 46.6115C75.9175 46.7602 75.8475 46.924 75.8125 47.1027C75.7775 47.2802 75.7788 47.459 75.8175 47.6352C75.8338 47.834 75.8913 48.0202 75.9913 48.1927C76.0913 48.3652 76.2225 48.5077 76.3875 48.6215C76.61 48.7465 76.8488 48.8227 77.1038 48.8465C77.3575 48.8715 77.6063 48.844 77.8488 48.764C78.5513 48.5665 79.2388 48.3302 79.9125 48.0527C80.1863 47.9402 80.47 47.829 80.7563 47.7277C81.025 47.9327 81.24 48.184 81.4013 48.4815C81.5613 48.7777 81.655 49.0952 81.6788 49.4327C81.7163 50.014 81.6375 50.579 81.4463 51.129C81.2538 51.6777 80.9613 52.169 80.5713 52.6002Z" fill="white"/>
</g>
<defs>
<linearGradient id="paint0_linear_127_764" x1="59.786" y1="18.6274" x2="59.786" y2="95.7064" gradientUnits="userSpaceOnUse">
<stop stop-color="#3A8EF6"/>
<stop offset="1" stop-color="#6F3AFA"/>
</linearGradient>
</defs>
</svg>
